<svg id="图层_1" data-name="图层 1" xmlns="http://www.w3.org/2000/svg" viewBox="0 0 88.45 40.66"><defs><style>.cls-1{fill:#bc121a;}.cls-2{fill:#251411;}</style></defs><title>画板 14 副本</title><path class="cls-1" d="M29.87,20.17a11,11,0,0,0-2.53-6.46A10.71,10.71,0,0,0,18.89,9.8a10.94,10.94,0,0,0-8.2,3.67,10,10,0,0,0-2.37,4.87,10.78,10.78,0,0,0,1,7.3,10.67,10.67,0,0,0,5.54,5.06,11.19,11.19,0,0,0,8.71-.17,10.61,10.61,0,0,0,5.16-5A11.25,11.25,0,0,0,29.87,20.17Zm-12,8.91a8.15,8.15,0,0,1-6.18-4A8.19,8.19,0,0,1,10.57,19a8.89,8.89,0,0,1,3-5.06,9,9,0,0,1,4.32-1.7v4H16.18A2.6,2.6,0,0,0,13.8,18.9v3.7a2.67,2.67,0,0,0,2.44,2.54h1.63v3.94Zm-1.37-6.29a.37.37,0,0,1-.46-.36V18.88s.06-.37.36-.37h5a.38.38,0,0,1,.46.37v3.45s.11.54-.29.46Zm9.68,2.6a9.12,9.12,0,0,1-6.1,3.7V25.14H22a2.72,2.72,0,0,0,2.13-2.49V18.44a2.65,2.65,0,0,0-2.55-2.21H20.07v-4a8.4,8.4,0,0,1,4.56,2.08,8.8,8.8,0,0,1,2.78,4.75A9.09,9.09,0,0,1,26.17,25.39Z"/><path class="cls-2" d="M53.44,21.53h-.25a4.1,4.1,0,0,1-1.42,1.23,10.72,10.72,0,0,0-2.69-1.33H47.41c-.25-.09-.91-.17-1.22-.24v.44a1.24,1.24,0,0,1,.29.89c-2.17-.07-1.51-7.84-.59-8.92.13.07.08,0,.15.14A2.19,2.19,0,0,1,45.79,15a16.14,16.14,0,0,0,0,4.71h.06c0-.1.07-.2.09-.3H46c0,.46.07,1.31.34,1.48.2-.16.71,0,.93-.15.47-.32,2.32-2.06,2.4-2.6l-.09-.06c-.25.2-2,1.67-2.51,1.33.13-1.23,1-1.77,1.32-2.65h0c-.19.16-.19.26-.54.29,0-1,.52-.95.58-1.71-.11-.22.06-.27-.15-.4a1.1,1.1,0,0,1-.09-.14,1.35,1.35,0,0,1-.64.29v-.4l.44-.44a2.57,2.57,0,0,0-.44-1.42l-.1.06a1.64,1.64,0,0,1-.15,1l-.14.06-.1-.06a1.33,1.33,0,0,1-.29-.83c.53-.29.68-1.05,1.18-1.38a9.73,9.73,0,0,1,1.67-.78c4.85-2.06,4.38,7.25,3.87,10.69ZM77.13,10.65c.08.41.36.62.49.93a3.65,3.65,0,0,1-.29,2.85,5.62,5.62,0,0,0-2.69,1.42l0,.09c.37.16,1.82.47,1.62.89,0,.13,0,.26,0,.39a6.34,6.34,0,0,0-1.81,1.91c1,.39,2,2.35.93,3.24v.09l-.09-.05c-.35-.51-1-.48-1.08-1.27a3.21,3.21,0,0,0,.25-1.42c-1.44.05-1.39,1.65-2.25,1-.09-.07-.32-.06-.43-.16s-.13-.43-.31-.67c.2-.31.16-.49.37-.77.57-.72,1.43-1.45,2-2.17,0-.08,0-.14,0-.2a2.27,2.27,0,0,1-1.67-.64l0-.54A15.5,15.5,0,0,0,75.39,12c.34-.48.45-1.07.93-1.38ZM40.19,16.53l.45.06v.05c-.11.37-.28.44-.3.93a.82.82,0,0,0-.63.35c-.37.4-.66,2.84-1,3.52s.15,1.61-.15,2.06c-.37.07-.46.27-.84.35,0-.1,0-.2-.05-.29-.61-.68-.14-2-.54-2.55l-.1,0a5.89,5.89,0,0,0,.2,2.36c.13.27.37.33.44.73h-.25c-.77-1.51-.55-3.43-1-5.29h-.06l-.25.05c0,.45-.06.59-.49.59-.35-.24-.89-.33-1.22-.59A4.91,4.91,0,0,1,33.06,15h.25l1.19,1.18.29,0,1.91-1.42a10.88,10.88,0,0,1,.44-3.88h.44a4.31,4.31,0,0,1,1.81,2.4c.88,0,1.62-.58,2.7-.29C42.09,14.59,40.36,15.46,40.19,16.53Zm9.33,4.61a23.24,23.24,0,0,0,2.79.24c2-1.15.74-9.17-.68-10s-3.74.6-4.07,1.27a1.58,1.58,0,0,1,.68,1.08c.63,0,.73-.32,1.28-.35a2.35,2.35,0,0,1,.19.25c0,.68-.5,1.06-.73,1.56a2.67,2.67,0,0,1,1.22,2.11c-.25.08-.33.24-.19.44a10.89,10.89,0,0,0,1.47-2.11l.09.06c.06.07.1.13.15.2-.08,1-1,1.65-1.52,2.25v.35c.31.19.47.43.93.49a9,9,0,0,0,.69-1.67h0a5.68,5.68,0,0,1-.54,2.25l.73.06v.54c-.4.31-.22.64-1,.64-.13-.24-1.11,0-1.52.05C49.52,21,49.52,21,49.52,21.14Zm8-1.52a.74.74,0,0,1-.54-.15v-1c.89-.08,1-1.42,1.32-2.11.77-1.61,1.48-3.71,2.61-5h.25c.28.41.74.57.83,1.18-.56.29-1.5.6-1.81,1.13-.71,1.17-2.65,4.51-2.66,6Zm6.09-1c0-1.25.57-1.54.89-2.4H64.2c-.13.18-.32.2-.45.39A5.46,5.46,0,0,0,63.31,19h.15c.37-.55,1.81.08,2.55-.2s1-1.08,2.11-1.07v.05l-.15.15c-.06.29-.26.39-.59.4,0,.5-.61,1.09-.89,1.47.56.61,2.54.86,3.35,1.32l-.15.15v.1c-.88,0-1.84.53-2.69.15-.38-.17-.6-.58-1.33-.59a3.33,3.33,0,0,1-2.36,1.72,6.38,6.38,0,0,1-1-.69c0-.38,0-.75-.05-1.13H62c-.34,1.26-2,1.48-3,2-.07-.27-.13-.56-.2-.83a5.3,5.3,0,0,0,.79-.78c0-.08,0-.13-.06-.2-.27,0-.34,0-.44-.15.54,0,.63-.15.58-.69a.26.26,0,0,0,0-.09l-.09.05c-.24.43-.89,1.44-1.48,1.52-.13-.25-.28-.28-.34-.63a.23.23,0,0,1,.05-.1c.72-.1,1.1-.82,1.62-1.18l-.06-.1h-.25c-.14-1.07-.33-1.38.44-2.06a1.51,1.51,0,0,0-.34-.93l1.18-.78.64.69v.19c-.2.3-.55.43-.78.69,0,.23,0,.45.05.69h.15c.08-.24.14-.28.44-.3,0-.19,0-.19.1-.29h0l.15.84a1.16,1.16,0,0,0-.44.49h1a.86.86,0,0,1,.2.58,12.68,12.68,0,0,0-2,2.16h.1l.05.06a5.68,5.68,0,0,0,2.31-2,8.94,8.94,0,0,1,.44-3.34c.19-.47,0-.85.1-1.22a7.76,7.76,0,0,0,.73-1.87c.31,0,.33.14.59.09.08-.13.07-.11.19-.19v-.25h.26c.27-.47,1.11-.62,1.22-1.18l.54-.06a24.24,24.24,0,0,1-1.42,5l-.73.3c-.06.19-.1.39-.15.58l0,.05a4.79,4.79,0,0,1,.89-.39c0-.32-.06-.45.1-.54l.34.54,0,.49c-.78.11-1.17.81-1.91.92Zm1.13-5.45c-.12.73-.92,1.38-.69,2.31h.25c.43-.38.86-.75,1.27-1.13.13-.64.26-1.27.4-1.91l-.06-.05-.19.2c-.3.14-.52.57-1,.58ZM49.92,13.1c.89,0,.95.35,1.61.44,0,.86-.28,1.23-1.18,1.18A2.51,2.51,0,0,1,49.92,13.1ZM62,13.39c.09.3.19.59.29.89-.57,0-.76.35-1.22.49l-.06,0a4.7,4.7,0,0,1,.29-1.38c.11-.1.18-.1.4-.1.1.18,0,.12.3.15Zm20,.2.25.05a.46.46,0,0,1,0,.1c-.28.15-.37.48-.49.78a5,5,0,0,0-3.49,1.38h-.14a.64.64,0,0,0-.2-.2,3.82,3.82,0,0,0-.15-.68c.16-.1.23-.3.35-.45.71.55,1.86-.43,2.39-.63s1.07-.12,1.53-.35Zm-41.64,0c-.66.71-1.53.72-1,2.45h.29a17.92,17.92,0,0,1,1.47-2.2c-.07-.08-.16-.16-.23-.25Zm8.33.69v.29H49v-.29Zm31.6,3.24a9.5,9.5,0,0,0-.1,1.81,9.8,9.8,0,0,1,.49,3.43c-.47.32-.62.65-1.47.64-.16-.37-.31-1-.64-1.18-.6-.39-1.53-.62-1.81-1.32h.39c.27.56,1.32.75,2.16.73a12.52,12.52,0,0,0,0-4.32l-.09,0a8.8,8.8,0,0,1-2.45,1.23l-.1-.06V18c1.93-.85,3.91-2.22,6.33-2.36.07.21.11.16.15.44-.74.37-2.91.69-3.35,1.19v.05c.14.08.12.07.2.2ZM36.57,16.14c-.52,0-1.24.52-1.22,1.13.21.32.42.65.64,1,.3-.09.44-.34.64-.54C36.61,17.19,36.59,16.66,36.57,16.14Zm13.2,1v-.29l-.44-.29V17A1.13,1.13,0,0,0,49.77,17.17ZM48,18.24a1.79,1.79,0,0,0,1.38-.68v-.25c-.16-.12-.24-.31-.39-.44A2.61,2.61,0,0,0,48,18.24Zm11.72,0-.05.06a1.76,1.76,0,0,0,.2.09v-.05A1,1,0,0,1,59.67,18.24Zm-.15.15-.05.05.1.1.09-.06Zm-9.75.15c-.43.83-1.6,1.11-1.91,2h.68a14.37,14.37,0,0,1,2.65-.84v-.19a.23.23,0,0,0,0-.1C50.36,19.38,50.39,18.72,49.77,18.54Zm16.43.54c-.12.17-.31.23-.45.39.12.16.12.19.35.25h.05a3.43,3.43,0,0,0,.35-.63Zm-5,.24H60.8c-.41.21-.58.3-.54,1l.09.09A1.89,1.89,0,0,0,61.19,19.32ZM65.31,21a.51.51,0,0,1,.15-.4,5.1,5.1,0,0,0-2.25-1l-.06.05c0,1.19-.28,1.43.4,2.25A5.53,5.53,0,0,1,65.31,21ZM38.14,21,37.8,21c0,.64-.08,1.27-.1,1.91a.76.76,0,0,1,.25.15l.25-.05A20.07,20.07,0,0,1,38.14,21Zm21.68.6a.75.75,0,0,1-.15.09l.06.1c.19,0,.19,0,.29-.1A1.76,1.76,0,0,0,59.82,21.59Zm-24,6.87H36a.76.76,0,0,0,.59-.19,1.08,1.08,0,0,0,.17-.67,1,1,0,0,0-.17-.69.76.76,0,0,0-.61-.2H35.8Zm0,2.09h.27a.83.83,0,0,0,.65-.22,1.74,1.74,0,0,0,0-1.58.92.92,0,0,0-.7-.22H35.8v2Zm-1.54.1v-.1h.38V26.73h-.38v-.1h1.87c.33,0,.59,0,.76,0a1.54,1.54,0,0,1,.4.1,1.05,1.05,0,0,1,.4.31.75.75,0,0,1,.15.43.77.77,0,0,1-.33.64,2.1,2.1,0,0,1-.95.35,2.08,2.08,0,0,1,1.11.34.92.92,0,0,1,.39.77.91.91,0,0,1-.19.57,1.17,1.17,0,0,1-.55.37,1.58,1.58,0,0,1-.36.09l-.54,0Zm4.94-1.39h.93l-.48-1.36Zm-.8,1.39v-.1h0a.29.29,0,0,0,.17-.05.29.29,0,0,0,.1-.16l1.22-3.79h.43l1.4,4H42v.1H40.32v-.1h.27l-.44-1.19h-1l-.23.79,0,.14a.17.17,0,0,0,0,.07.18.18,0,0,0,.08.16.41.41,0,0,0,.23,0h0v.1Zm3.88-3.92h-.12v-.1h1.4l2,2.86V27.17a.59.59,0,0,0-.07-.35.31.31,0,0,0-.25-.1h-.13v-.1h1v.1H46c-.12,0-.2,0-.24.08a.72.72,0,0,0-.07.37v3.48H45l-2.26-3.22v2.68a.61.61,0,0,0,.07.36.29.29,0,0,0,.25.1h.13v.09h-1v-.09h.12a.29.29,0,0,0,.25-.1.59.59,0,0,0,.08-.36V27.27Zm4.37,3.92v-.1h.4V26.71h-.4v-.09h1.94v.09h-.4v1.8l1.48-1.38.11-.13a.25.25,0,0,0,0-.11.16.16,0,0,0-.07-.14.46.46,0,0,0-.2,0h-.07v-.09h1.3v.1h0a1.08,1.08,0,0,0-.44.09,2.72,2.72,0,0,0-.48.34l-.75.68,1.59,2.71H51v.09H49v-.09h.33l-1.09-2-.08.07v1.91h.4v.1Zm7.16-2A5.48,5.48,0,0,0,54,30.26a.65.65,0,0,0,1.2,0,5.11,5.11,0,0,0,.16-1.62A5.48,5.48,0,0,0,55.17,27a.65.65,0,0,0-1.2,0A5.14,5.14,0,0,0,53.81,28.64Zm-1.23,0a2.3,2.3,0,0,1,.15-.82,2.23,2.23,0,0,1,.45-.68,2,2,0,0,1,.64-.45,1.91,1.91,0,0,1,2.15.45,1.84,1.84,0,0,1,.45.68,2.16,2.16,0,0,1,.15.83,2.21,2.21,0,0,1-.15.84,2.06,2.06,0,0,1-.45.68,2.18,2.18,0,0,1-.64.45,2.11,2.11,0,0,1-1.51,0,2.13,2.13,0,0,1-.64-.45,2.17,2.17,0,0,1-.45-.68A2.37,2.37,0,0,1,52.58,28.64Zm4.62,2v-.1h.38V26.71H57.2v-.09h3.24v1h-.07a1.08,1.08,0,0,0-.36-.73,1.42,1.42,0,0,0-.89-.22h-.37V28.5h.33a.88.88,0,0,0,.6-.16.81.81,0,0,0,.2-.56H60v1.57h-.07a.79.79,0,0,0-.22-.59,1,1,0,0,0-.67-.18h-.24v1.92h.37v.1H57.19v0Zm8.7-1.29H66v1.29h-.08a.2.2,0,0,0-.06-.16s-.07,0-.13,0l-.41.15a2.08,2.08,0,0,1-.77.16,2.25,2.25,0,0,1-.78-.15,2.19,2.19,0,0,1-.67-.43,2,2,0,0,1-.48-.66,2.07,2.07,0,0,1-.16-.82,2.43,2.43,0,0,1,.2-1,2,2,0,0,1,.56-.76,1.89,1.89,0,0,1,.6-.35,2.28,2.28,0,0,1,.7-.12,2.37,2.37,0,0,1,.8.16l.42.15a.12.12,0,0,0,.12,0,.18.18,0,0,0,.06-.14H66v1.29h-.07a2,2,0,0,0-.46-1,1.06,1.06,0,0,0-.8-.33.84.84,0,0,0-.37.07.86.86,0,0,0-.3.24,1.3,1.3,0,0,0-.21.53,6.78,6.78,0,0,0-.06,1.08,9.46,9.46,0,0,0,0,1.11,1.83,1.83,0,0,0,.12.5.74.74,0,0,0,.29.36.92.92,0,0,0,.47.13,1.18,1.18,0,0,0,.86-.34,1.3,1.3,0,0,0,.4-.93Zm.87,1.29v-.1h.4V26.71h-.4v-.09h1.91v.09h-.35v1.8h1.14v-1.8h-.35v-.09H71v.09h-.38v3.84H71v.1h-1.9v-.1h.35V28.6H68.33v1.95h.35v.1Zm4.77,0v-.1h.4V26.71h-.4v-.09h1.94v.09h-.4v3.84h.4v.1Zm2.53-3.92H74v-.1h1.4l2,2.86V27.17a.68.68,0,0,0-.07-.35.32.32,0,0,0-.25-.1h-.12v-.1h1v.1H77.8a.28.28,0,0,0-.24.08.72.72,0,0,0-.07.37v3.48h-.67l-2.26-3.22v2.68a.7.7,0,0,0,.07.36.31.31,0,0,0,.25.1H75v.09H74v-.09h.11a.32.32,0,0,0,.26-.1.7.7,0,0,0,.07-.36V27.27Zm4.87,2.53h.93l-.48-1.36Zm-.79,1.39v-.1h0a.3.3,0,0,0,.18-.05.28.28,0,0,0,.09-.16l1.23-3.79h.43l1.39,4h.22v.1H80.06v-.1h.27l-.44-1.19h-1l-.24.79a.84.84,0,0,1,0,.14v.07a.18.18,0,0,0,.07.16.45.45,0,0,0,.23,0h0v.1Z"/></svg>