<svg id="图层_1" data-name="图层 1" xmlns="http://www.w3.org/2000/svg" viewBox="0 0 88.45 40.66"><defs><style>.cls-1{fill:#d10d23;}.cls-2{fill:#022655;}.cls-3{fill:#006f78;}.cls-4{fill:#fff;}.cls-5{fill:#514b48;}</style></defs><title>画板 14 副本 10</title><path class="cls-1" d="M8.46,10.69H16.1a1.48,1.48,0,0,1,1.47,1.94L14,27.9a2.6,2.6,0,0,1-2.39,1.93H4A1.48,1.48,0,0,1,2.51,27.9L6.07,12.63A2.59,2.59,0,0,1,8.46,10.69Z"/><path class="cls-2" d="M15.46,10.69h8.78c1.07,0,.59.87.34,1.94L21,27.9c-.25,1.06-.17,1.93-1.24,1.93H11A1.48,1.48,0,0,1,9.52,27.9l3.56-15.27A2.58,2.58,0,0,1,15.46,10.69Z"/><path class="cls-3" d="M23.89,10.69h7.64A1.49,1.49,0,0,1,33,12.63L29.45,27.9a2.59,2.59,0,0,1-2.38,1.93H19.43A1.49,1.49,0,0,1,18,27.9l3.56-15.27A2.58,2.58,0,0,1,23.89,10.69Z"/><path class="cls-4" d="M22.61,25.05h.72l.21-.69h-.72Zm.58-1.91L23,24a2.92,2.92,0,0,1,.42-.18,3.27,3.27,0,0,1,.37-.07l.17-.57ZM23.55,22l-.24.79a3.93,3.93,0,0,1,.42-.16,2,2,0,0,1,.37-.05l.17-.58Zm1.59,0-.93,3.09h.25l-.19.63H24l-.06.2h-.88l.06-.2h-1.8l.18-.59h.19L22.65,22l.19-.63h.9l-.09.32a1.73,1.73,0,0,1,.47-.23c.22-.06,1.53-.08,1.53-.08l-.19.63h-.32Z"/><path class="cls-4" d="M25.54,21.34h1v.36c0,.06,0,.09.16.09h.2l-.18.59h-.52c-.45,0-.62-.16-.62-.38Zm.13,2.81h-.92l.16-.52H26l.15-.49h-1l.18-.59h2.89l-.19.59H27l-.15.49h1l-.16.52h-1l-.19.23h.42l.1.66a.62.62,0,0,0,0,.14.57.57,0,0,0,.22,0h.13l-.19.64h-.56a.48.48,0,0,1-.23-.09.31.31,0,0,1-.17-.23l-.11-.67-.47.66a.82.82,0,0,1-.71.36h-.67l.18-.57h.25a.39.39,0,0,0,.19-.06.27.27,0,0,0,.14-.11ZM15.6,22.7H18l-.18.59h-1l-.15.49h1l-.19.6h-1l-.24.8c0,.09.23.11.33.11l.49-.07-.2.66H15.81a1.07,1.07,0,0,1-.25,0,.28.28,0,0,1-.18-.13c0-.07-.11-.12-.06-.26l.32-1.07h-.55l.18-.61h.56l.15-.49h-.56Zm1.64-1h1l-.19.61H16.69l-.15.13c-.06.06-.08,0-.17.08a1,1,0,0,1-.45.11h-.44l.18-.58h.14A.39.39,0,0,0,16,22a.55.55,0,0,0,.15-.19l.25-.45h1Z"/><path class="cls-4" d="M19.16,22.66a1.54,1.54,0,0,1,.73-.33c.11,0,.77,0,.77,0l.1-.34h-1.4Zm1.31.25H19.08L19,23.2h1.2c.14,0,.17,0,.19,0Zm-1.81-1.57h.85l-.12.43a2.31,2.31,0,0,1,.45-.29,3.52,3.52,0,0,1,.62-.14h1.37l-.47,1.56a2.16,2.16,0,0,1-.22.52.63.63,0,0,1-.24.21.72.72,0,0,1-.32.11H18.83L18.45,25c0,.12-.05.18,0,.22a.15.15,0,0,0,.13.06l.58-.05-.2.67H17.82a.64.64,0,0,1-.28-.05c-.06-.06-.15-.13-.15-.2s0-.18.08-.33Z"/><path class="cls-4" d="M21.14,23.86l-.08.37a.45.45,0,0,1-.15.28.59.59,0,0,1-.45.17H20v.43c0,.12,0,.1.05.13l.06,0h.15l.45,0-.18.62H20a1.65,1.65,0,0,1-.72-.08c-.09-.05-.1-.12-.1-.24l0-1.65H20v.33h.2a.41.41,0,0,0,.14,0,.15.15,0,0,0,.06-.09l.08-.26ZM9.36,15.57,8.8,18.15a1.84,1.84,0,0,1-.48,1.08.88.88,0,0,1-.57.2.52.52,0,0,1-.58-.5v-.12l.11-.66s.56-2.23.66-2.53a0,0,0,0,1,0,0,7.33,7.33,0,0,1-1.29,0s0,.17,0,.17l-.57,2.51,0,.21-.1.7a1.08,1.08,0,0,0,.13.52c.25.45,1,.52,1.41.52a2.88,2.88,0,0,0,1.39-.32,2,2,0,0,0,.88-1.39l.06-.25s.58-2.31.68-2.62a0,0,0,0,1,0,0C9.66,15.59,9.43,15.58,9.36,15.57Zm3.17,4.59c-.39,0-.52,0-1,0l0,0,.12-.51.05-.24c.08-.36.17-.78.18-.91s0-.28-.19-.28a.88.88,0,0,0-.29.09c-.05.2-.17.74-.22,1-.11.52-.12.58-.17.84l0,0c-.39,0-.53,0-1,0l0,0c.08-.3.16-.62.23-.93a15.41,15.41,0,0,0,.29-1.59l0,0c.45-.06.55-.07,1-.17l0,0-.08.27.25-.14a1.46,1.46,0,0,1,.61-.14.53.53,0,0,1,.54.3c.09.22,0,.49-.09,1l-.06.27c-.12.58-.15.69-.21,1.09l0,0Zm1.56,0h-.53l-.5,0v0a1.4,1.4,0,0,1,.12-.37c0-.09.05-.16.1-.39s.11-.5.14-.68,0-.32.07-.49l0,0,0,0L14,18.1l.54-.1v0c0,.19-.08.37-.13.55s-.09.37-.13.55c-.08.39-.12.54-.14.64s0,.15-.06.35l0,0Zm2.44-1.36a2,2,0,0,1-.22.63.37.37,0,0,1-.29.18s-.21,0-.22-.28a2.43,2.43,0,0,1,.06-.44c.11-.45.23-.82.53-.82S16.64,18.35,16.53,18.8Zm1,0a1.19,1.19,0,0,0-.1-1,1.16,1.16,0,0,0-.92-.34,1.71,1.71,0,0,0-1.16.41,1.91,1.91,0,0,0-.52,1c-.08.36-.17,1,.42,1.26a1.8,1.8,0,0,0,.63.1,1.61,1.61,0,0,0,1.22-.48A2.06,2.06,0,0,0,17.54,18.84Zm9.39,1.36c-.46,0-.59,0-1,0l0,0c.12-.44.23-.88.34-1.33s.16-.82.21-1.16l0,0,1.07-.18v0c-.09.36-.17.72-.26,1.09-.18.77-.24,1.15-.3,1.55Z"/><path class="cls-4" d="M26.23,18.85a2.22,2.22,0,0,1-.22.62.51.51,0,0,1-.38.18s-.22,0-.22-.27a1.72,1.72,0,0,1,.06-.44c.1-.44.22-.81.53-.81S26.34,18.4,26.23,18.85Zm.92,0c.13-.59-.41-.05-.5-.24s0-.92-.58-1.12a1.27,1.27,0,0,0-1.1.4,1.89,1.89,0,0,0-.51,1c-.09.36-.18,1,.42,1.24a1.13,1.13,0,0,0,.53.1c.6,0,1.05-.94,1.39-1.3S27.11,19.07,27.15,18.89Zm-7,1.27c-.38,0-.52,0-1,0l0,0,.12-.51.06-.24c.08-.36.16-.78.17-.91s0-.28-.18-.28a.86.86,0,0,0-.3.09c-.05.2-.16.74-.21,1-.11.52-.12.58-.17.84l0,0c-.4,0-.53,0-1,0l0,0c.08-.3.15-.62.22-.93a11.31,11.31,0,0,0,.29-1.59l0,0c.44-.06.55-.07,1-.17l0,0-.07.27.24-.14a1.5,1.5,0,0,1,.62-.14.53.53,0,0,1,.54.3c.09.22,0,.49-.1,1l-.06.27c-.12.58-.14.69-.21,1.09l0,0Zm3.33-4.59h-.32c-.83,0-1.16,0-1.3,0l0,.17-.3,1.38s-.71,2.93-.74,3.07h1.14c0-.13.2-.95.21-.95s.14-.6.15-.62a.34.34,0,0,1,.09-.09h.06a3.13,3.13,0,0,0,1.89-.4,2.09,2.09,0,0,0,.75-1.2,1.77,1.77,0,0,0,.05-.41A.89.89,0,0,0,25,16C24.7,15.57,24.14,15.57,23.49,15.57ZM23.91,17a1,1,0,0,1-.53.69,1.73,1.73,0,0,1-.73.11h-.17v-.06l.32-1.38v-.12H23l.67.06A.55.55,0,0,1,23.91,17Zm6.82.49,0,0c-.47.09-.56.11-1,.17l0,0v0h0c-.33.75-.31.58-.58,1.17v-.07L29,17.49l0,0c-.5.09-.51.11-1,.17l0,0a.09.09,0,0,1,0,.05h0a6.43,6.43,0,0,1,.1.69l.09.68c0,.37.07.56.13,1.13-.31.51-.39.7-.68,1.15v0l.89,0,.07-.08C28.82,20.77,30.73,17.49,30.73,17.49Zm-16.22.32c.25-.18.29-.42.07-.55a.86.86,0,0,0-.85.09c-.26.17-.29.42-.07.55A.91.91,0,0,0,14.51,17.81Z"/><path class="cls-4" d="M28.53,21.35l-.37.64a.73.73,0,0,1-.68.38h-.6l.18-.58h.11l.14,0a.17.17,0,0,0,.08-.07l.22-.35Z"/><path class="cls-5" d="M47.55,19.26l.86-3.69H44l.36-1.52H42.81l-.35,1.52H41.09a3.43,3.43,0,0,0-1.7.68l.16-.68H38l-1.12,4.85h4.42l-.66,2.85H42.2l.66-2.85h3.33a1.37,1.37,0,0,0,.92-.4,1.6,1.6,0,0,0,.44-.76Zm-6,.09H38.67l.64-2.72h2.9Zm4.49-.24a.38.38,0,0,1-.33.24H43.11l.63-2.72h2.91Zm12.76,3,1.88-8.06H53.35a3.48,3.48,0,0,0-1.7.68l.16-.68H50.28l-2.14,9.22h9.34a1.33,1.33,0,0,0,.86-.35A1.6,1.6,0,0,0,58.83,22.11Zm-1.47-.19a.4.4,0,0,1-.35.29H49.9l1.66-7.1h7.38Z"/><path class="cls-5" d="M52.17,15.92h5.77L57.69,17H55.56l-.26,1.15h2.12l-.24,1.05H55.05l-.27,1.15h.78a4.7,4.7,0,0,0-.07-.77h1.1s0,.37,0,.77h.3l-.25,1.07H50.9l.24-1.06h2.12l.27-1.16H51.41l.24-1.05h2.12L54,17H51.91l.26-1.06Zm9.72-.46h.47s.7-.05,1.13-1.41h1.6a5.35,5.35,0,0,1-.35.7h2l-.25,1.07H63.94a2.44,2.44,0,0,1-1.59.73h-.71l.25-1.09Zm4.37,1.35L66,17.87h-1.8l-.35,1.49h1.81l-.25,1.06H63.61l-.33,1.45a.25.25,0,0,0,.24.34H65l-.25,1.06H62.45a1,1,0,0,1-.55-.15.74.74,0,0,1-.24-.81l.44-1.88H61l.24-1.07h1.09l.34-1.48H61.61l.24-1.07Zm6.12.93.86-3.69H70.5a3.53,3.53,0,0,0-1.7.68l.16-.68H67.44l-1.92,8.21a.78.78,0,0,0,.1.74,1,1,0,0,0,.74.26h1.77l.24-1.06h-1a.25.25,0,0,1-.24-.34l.68-2.93H71a1.19,1.19,0,0,0,.73-.24,1.62,1.62,0,0,0,.66-1Zm-3.67-2.62h2.76l-.2.84H70a3.56,3.56,0,0,0-1.64.68Zm2.12,2.75H68.07l.2-.85H71Z"/><path class="cls-5" d="M68.54,19.35h1.52v.74h.55s.2,0,.25-.16l.13-.57h1.17l-.19.8a.9.9,0,0,1-.34.54,1.36,1.36,0,0,1-.84.21h-.71l0,1.08s0,.21.28.21H71.5l-.25,1.06H69.56s-.73,0-.88-.32a1.1,1.1,0,0,1-.09-.5l0-3.09Zm11.62-4.24.25-1.06H78.48a3.69,3.69,0,0,0-1.66.68l.16-.68H75.46l-1.79,7.7h-.55l-.24,1.06H76.4l-.1.46h1.51l.11-.46h.44l.25-1.06h-.45l1.54-6.64Zm-3.51,6.63H75.19l.35-1.5H77Zm.6-2.55a3.19,3.19,0,0,0-1.62.68l.51-2.19H77.6Zm.6-2.57a3.19,3.19,0,0,0-1.62.68l.5-2.19h1.46Zm1.89,1.06L80,16.63h5.33l-.25,1.05h-1.9l-.24,1h1.91l-.24,1H82.53l-.32.54h.91l.27,1.51s.07.38.26.41H84l-.24,1.06H83a1.14,1.14,0,0,1-.82-.35,1.34,1.34,0,0,1-.19-.59l-.22-1.27L81,22.33a2.34,2.34,0,0,1-.5.64,1.31,1.31,0,0,1-.9.29H78.45l.25-1.06h.56s.23,0,.45-.31L81,19.73H79.26l.25-1.05h1.91l.23-1Zm6.18-3.63H84.26a2.57,2.57,0,0,1-.28.6.94.94,0,0,1-.79.34l-.25,1.07h.92a1.78,1.78,0,0,0,1.27-.6,3.1,3.1,0,0,0,.79-1.41Zm-5.33,0h1.66a1.86,1.86,0,0,0,0,.6s0,.33.62.34l-.25,1.07h-.91a1.1,1.1,0,0,1-1-.6,2.17,2.17,0,0,1-.12-1.41Z"/><path class="cls-5" d="M39.19,29.55a4.12,4.12,0,0,1-1.85.36,2,2,0,0,1-2-2.57,3.35,3.35,0,0,1,3.21-2.58,2.83,2.83,0,0,1,1.64.36l-.47.72a2.28,2.28,0,0,0-1.25-.28,2.3,2.3,0,0,0-2,1.78,1.33,1.33,0,0,0,1.21,1.77,3.59,3.59,0,0,0,1.4-.27l.16.71Zm2.65.26.5-2.11c.07-.32,0-.5-.41-.5a1.55,1.55,0,0,0-.71.26l-.55,2.35h-1l1.19-5.14,1-.11-.53,2.3a2.55,2.55,0,0,1,1.22-.39c.64,0,.92.39.78,1l-.54,2.34h-1Zm3.61-4.45a.7.7,0,0,1-.62.5.41.41,0,0,1-.39-.5.72.72,0,0,1,.62-.5A.4.4,0,0,1,45.45,25.36Zm-.29,1.18-.76,3.27h-1l.76-3.27Zm2.09,3.27.49-2.11c.08-.32,0-.5-.4-.5a1.51,1.51,0,0,0-.72.26l-.54,2.35h-1l.76-3.27h.92l0,.32A2.5,2.5,0,0,1,48,26.47c.64,0,.92.39.78,1l-.54,2.34Zm2.49.07c-.65,0-1-.4-.86-.94a1.62,1.62,0,0,1,1.6-1.12l.7,0,0-.17c.06-.29,0-.53-.49-.53a2.55,2.55,0,0,0-1,.2l-.09-.5a3.87,3.87,0,0,1,1.5-.33c.79,0,1.21.38,1.07,1l-.42,1.81a1.26,1.26,0,0,0,0,.51h-1a.71.71,0,0,1,0-.29A1.85,1.85,0,0,1,49.74,29.88Zm1.32-1.59-.47,0c-.3,0-.71.13-.8.51s.23.4.41.4a1.58,1.58,0,0,0,.7-.27l.16-.68Zm7.14-.19a2.44,2.44,0,0,1-2.52,1.81c-1.35,0-1.92-.75-1.67-1.81l.75-3.25h1.05L55.09,28c-.17.74,0,1.16.82,1.16A1.41,1.41,0,0,0,57.26,28L58,24.86h1Zm2.45,1.71.49-2.11c.08-.32,0-.5-.4-.5a1.51,1.51,0,0,0-.72.26l-.54,2.35h-1l.76-3.27h.92l0,.32a2.49,2.49,0,0,1,1.23-.39.73.73,0,0,1,.79,1l-.55,2.34Zm3.67-4.45a.7.7,0,0,1-.62.5.4.4,0,0,1-.38-.5.7.7,0,0,1,.62-.5A.4.4,0,0,1,64.32,25.36ZM64,26.54l-.76,3.27h-1l.76-3.27Zm3.86,1.64a2.32,2.32,0,0,1-2.26,1.7,1.35,1.35,0,0,1-1.48-1.7,2.32,2.32,0,0,1,2.27-1.71A1.35,1.35,0,0,1,67.9,28.18Zm-2.71,0c-.13.56,0,1.06.6,1.06a1.28,1.28,0,0,0,1.07-1.06c.13-.57-.09-1.07-.58-1.07a1.2,1.2,0,0,0-1.09,1.07Zm5,1.63.49-2.11c.07-.32,0-.5-.41-.5a1.47,1.47,0,0,0-.71.26L69,29.81H68l.76-3.27h.92l0,.32a2.5,2.5,0,0,1,1.24-.39.73.73,0,0,1,.79,1l-.54,2.34Zm3.33-3.27,0,.27a2,2,0,0,1,1.09-.34c.89,0,1.38.6,1.15,1.64a2.17,2.17,0,0,1-2,1.77,1.64,1.64,0,0,1-.92-.19l-.43,1.83h-1l1.16-5Zm.14,2.71c.38,0,.84-.31,1-1.13s-.15-1-.53-1a1.57,1.57,0,0,0-.78.26L73,29.1A1.2,1.2,0,0,0,73.65,29.25Zm3,.63c-.65,0-1-.4-.86-.94a1.62,1.62,0,0,1,1.6-1.12l.7,0,0-.17c.07-.29,0-.53-.49-.53a2.53,2.53,0,0,0-1,.2l-.1-.5a3.93,3.93,0,0,1,1.51-.33c.78,0,1.21.38,1.06,1l-.42,1.81a1.23,1.23,0,0,0,0,.51h-1a.71.71,0,0,1,0-.29A1.85,1.85,0,0,1,76.68,29.88ZM78,28.29l-.48,0c-.29,0-.71.13-.79.51s.23.4.41.4a1.58,1.58,0,0,0,.7-.27Z"/><path class="cls-5" d="M80.39,30.64c-.33.54-.7,1-1.31,1a1.43,1.43,0,0,1-.93-.24l.37-.58a1.3,1.3,0,0,0,.54.13c.37,0,.52-.28.82-.69l.22-.35-.59-3.33h1l.32,2.21,1.31-2.21H83l-2.59,4.1Z"/></svg>