<svg id="图层_1" data-name="图层 1" xmlns="http://www.w3.org/2000/svg" viewBox="0 0 88.45 40.66"><defs><style>.cls-1{fill:#043685;}.cls-2{fill:#251411;}</style></defs><title>画板 14</title><path class="cls-1" d="M8.82,11.45a4.9,4.9,0,0,1,4.33-.29,6.09,6.09,0,0,1,2,1.28l3.24,3.43-1.76,1.77-5-5.11C11.58,12.44,10.79,11.45,8.82,11.45ZM16,18.13l-2.07,2s-.29.49-.59,0L9.51,16.37s-.29-.5-.59-.1L5.09,20.2s-.29.39.1.59l3.73,3.73s.3.49.59.1l3.83-3.93s.1-.3.69-.3H18a8.47,8.47,0,0,1-2.85,6.49,8.77,8.77,0,0,1-9.43,1.57S.37,26.58.47,19.8a8.83,8.83,0,0,1,4.33-7s3-2.26,5.4-.59Z"/><path class="cls-2" d="M67.78,14.6c.29.1.68.29,1,.39-.1.2-.1.39-.2.59h1.67v.69c-.88,0-1.77-.3-2.36.19a.36.36,0,0,1-.09.2v.1h2.35v.69H68.76V18c.49,0,1,.09,1.47.09,0,.3,0,.59-.1.69-.39-.1-1.27-.19-1.47.2.1.29-.1.88.1,1.28.49-.3.88-.5,1.37-.79v.88c0,.1-.09.2-.09.3-.49.2-2,1.28-2.56.88-.29-.09-.39-.49-.59-.68a1.43,1.43,0,0,1,.59-.2V18.92c-.29,0-.78.1-1-.1v-.59c.29,0,.69-.1,1-.1v-.59a4.32,4.32,0,0,0-1.08,0c-.2-.19-.39-.49-.59-.68.2-.3.59-.4.79-.59A3.13,3.13,0,0,0,67.78,14.6Zm11.39.1a1.34,1.34,0,0,1,.79.68c-.39.79-1.47,2.36-2.46,2.36-.09-.19-.29-.49-.39-.69l.2-.19A5.68,5.68,0,0,0,79.17,14.7Zm-44.5.19c1.67,0,3.43.1,5.1.1.69.1,1.87-.2,2.17.3.49.58.09,4,.19,5.2.1.49.1,1.18-.19,1.38-2.85,0-5.7-.1-8.45-.1,0-.39-.2-3.05-.1-5a5.41,5.41,0,0,1,0-1.28,1.61,1.61,0,0,1,.49-.59Zm-8.06,0h.78c0,.3.1.49.1.79,1.28.19,2.26-.1,3.44.19.2.69.3,5.11,0,5H27.59v.78H26.12c-.1-.1,0,0,0-.1v-.68H22.58a35.44,35.44,0,0,1,.1-4.92c1.08-.59,2.36-.1,3.34-.29.1-.2.1-.49.2-.79Zm26.82,2.26h-.59v1.18a6.08,6.08,0,0,0-2.36.1v.29a6.93,6.93,0,0,1,2.46.1v.69H50.68c0,.1-.1.1-.1.2h.1c.69.29,1.77-.2,2.26.19.1.2,0,.49,0,.69H50.58v.3h2.85v.59l-.19.19c-1.68-.39-4,.1-5.61,0a8.49,8.49,0,0,1-1.86-.49,2.21,2.21,0,0,1-1.48.49v-1c.3-.1.5-.1.69-.3a2.74,2.74,0,0,1-.49-1.57h.69c.1.3.19.79.49.89a2.24,2.24,0,0,0,.1-1.58H44.39v-.78a1.67,1.67,0,0,0,1.38-1.48h-.3a2,2,0,0,1-1.27-.09c0-.2.09-.49.09-.69h2.76a3.68,3.68,0,0,1-.69,2.06h.49v2.07c-.1.29-.49,1-.39,1.17.09.5,2.16.59,2.75.4v-.3H47.14V19.8c.69,0,1.38-.09,2.07-.09v-.2H47.34v-.2c.1-.29-.1-.68.29-.59.4-.09,1.18,0,1.58-.09v-.2l-.1-.1a9.25,9.25,0,0,1-1.67,0v-.69h.1c.59,0,1.08-.1,1.67-.1v-.29h-2v-.79c.59,0,1.67.2,2-.19-.1-.1,0-.1-.1-.1-.49-.2-1.28.1-1.67-.1v-.69a5.4,5.4,0,0,0,1.77-.09V15h1.37c.1.3.1.3.4.39.58-.09,1.67-.19,2,.49,0,.2.1.4.1.69.29,0,.49,0,.59.1C53.43,16.76,53.43,17,53.43,17.15Zm11-.19v.68a6.34,6.34,0,0,1-1.38,0c-.2,0-.29-.19-.49-.19a2.07,2.07,0,0,1-.3-.69,3.22,3.22,0,0,0,0-1H60.51c-.1.59,0,1.27-.4,1.67a5.54,5.54,0,0,1-1.77.09c0-.19.1-.39.1-.68,1,0,.59-1.48.69-2.07h4.42l.3.3a7.05,7.05,0,0,0,0,1.47c0,.1.09.1.19.2S64.24,17,64.44,17Zm7.27-2.07c1.18,0,2.26.1,3.44.1.78.59.19,2.46.49,3.34l-.1.1H72.1c0,.69-.2,1.77.1,2.26.49-.2.78-.39,1-.2s0,.4.1.69c-.2.39-2.26.59-2.65.49,0-.19-.1-.69-.1-.78s.19,0,.29-.1v-5.9Zm9.53.89v-.69a33.64,33.64,0,0,1,5.5,0v.69Zm-23.19.09H55.3c0-.39,0-.58.1-.68h2.65Zm-22.8-.19c-.09.1-.29.1-.39.39a8.16,8.16,0,0,0,0,1.57V21H35a54.18,54.18,0,0,0,5.7,0V15.87h-.1C38.79,15.78,37,15.68,35.25,15.68Zm37.14,0H72.1v.59h2.16c0-.3,0-.49-.1-.59Zm6.39,6.09c0-.69.1-2.46-.2-2.65a4.61,4.61,0,0,1-.68.29,4.08,4.08,0,0,1-.49-1c1.37-.3,2-1.67,2.94-2.46a5.41,5.41,0,0,1,.79.69c-.2.49-.89.89-1,1.38v3.83a6.42,6.42,0,0,0-1.38-.1Zm-28.3-5.4h1v-.3h-.89A.37.37,0,0,0,50.48,16.37ZM40.27,18.43H39.09v.1c.49-.1.68.39,1.18.59v.49h-.79v.1c.29,0,.69-.1.79.09v.5c-.2.29-4.52.29-5.21.09v-.68c.59-.1,1.28.09,1.67-.1V18.23a4.26,4.26,0,0,1-1.67-.1v-.68c.59,0,1.28.19,1.67-.1v-.59H35.06V16h5.11v.2a.46.46,0,0,1-.1.59c-.3.1-1.38-.1-1.67.1v.59c.59,0,1.08.09,1.67.09A1.79,1.79,0,0,1,40.27,18.43Zm-15.43-2c-.3.1-.79,0-1,.2.1.59-.2,3.14.1,3.54a4.44,4.44,0,0,0,2,0,12.67,12.67,0,0,0,0-2,7.42,7.42,0,0,0-.1-1.67A3.61,3.61,0,0,1,24.84,16.46Zm2.85,0h-.1v1.87a11.12,11.12,0,0,0,.1,1.77,7.11,7.11,0,0,0,2.06,0V16.46Zm27,1v-.69h2.36V20.2c.39-.3.68-.59,1.08-.89a4.66,4.66,0,0,1,0,1.18c-.3.49-1.77,1.67-2.56,1.28-.1-.2-.29-.39-.39-.59v-.1c.2,0,.29-.1.49-.1V18.92a5.41,5.41,0,0,0,0-1.28A1.52,1.52,0,0,0,54.71,17.45ZM72,17.05v.5l.1.09a14.1,14.1,0,0,0,2.06,0v-.49h-.1A14.28,14.28,0,0,1,72,17.05Zm-21.52.1a.85.85,0,0,0,.1.49h.89v-.39A3,3,0,0,1,50.48,17.15Zm30.46.1h6v.1c-.1.2.09.49,0,.59-.3.1-.89-.1-1.08,0V19.8a5.17,5.17,0,0,1,0,1.18c-.4,1-2.36.79-3.44.69V21a4,4,0,0,0,1.86-.19,14.53,14.53,0,0,0,0-2.95,19.76,19.76,0,0,0-3.44,0c.1-.1.1-.39.1-.59ZM58.25,18.63c0-.4,0-.69.19-.79,2,0,3.93.1,6,.1v.88l-1.58,1.57a6.35,6.35,0,0,0,2.07.4v1a8.38,8.38,0,0,1-2.16-.29c-.4-.1-.79-.5-1.28-.4-.79.2-2.46,1.08-3.15.69v-.88a10.28,10.28,0,0,0,1.87-.4v-.1c-.49-.49-1.08-.68-1.47-1.27l.1-.1c1.27-.3,1.76.39,2.65.78a3,3,0,0,0,1.37-1.08v-.09Zm-19.65-.2a1.63,1.63,0,0,0,0,1,1.13,1.13,0,0,0,.78.39c-.2-.39-.29-.68-.49-1.08l.2-.19v-.1ZM75,18.72h.88v.2c-.29.49-.68,1-1,1.47.39.1.79.3,1.18.4v1a3.77,3.77,0,0,1-3.44-3.05h1a1.84,1.84,0,0,0,.69,1c.2-.2.39-.69.69-1ZM40.86,24.13a1,1,0,0,1-.59-.1c-.3-1.28-2.85-.59-2.36,1.28a1.39,1.39,0,0,0,1.86.88c.3-.2.4-.69.69-.78h.4a1.83,1.83,0,0,1-3.54-.2c-.4-2.16,2.16-2.65,3.44-1.28C40.86,23.93,40.86,24,40.86,24.13Zm18.57-1.08.19.19v.3h-.49v-.39A1,1,0,0,1,59.43,23.05ZM25.92,25.31a1.69,1.69,0,0,1-2.36,1.27c0-.19-1-.59-1.08-1.67v-.09c.1-2.07,3.34-2.36,3.44-.69h-.49C25,22.75,23,23.54,23,24.91c0,1.58,2.26,1.87,2.46.4Zm.88-2.26v1.18h.3a1.51,1.51,0,0,1,1.18-.2c.49.39.29.79.29,1.38s.2,1.08,0,1.27h-.39c0-.69-.1-1.37-.1-2.06-.59-.3-.78-.1-1.18.1-.19.39.1,1.77-.19,2h-.4V23.24A.56.56,0,0,1,26.8,23.05Zm2.46,0h.3v.49h-.4v-.39C29.16,23.05,29.16,23.05,29.26,23.05Zm38.71,0a3.26,3.26,0,0,1,2,.39,1.21,1.21,0,0,1-.2,1.28,3.84,3.84,0,0,1,.59.69,2.25,2.25,0,0,1-.2.78c-.19.1-.29.3-.58.3a4.21,4.21,0,0,1-2.17-.1c0-1.18-.09-2.66,0-3.44C67.48,23.05,67.78,23.05,68,23.05Zm8.35,0h.4v1.86c.1,0,.1-.09.19-.09a6.85,6.85,0,0,1,1-.79h.49l-.1.1a1.78,1.78,0,0,0-.79.69V25c.3.2,1.08,1.18,1,1.48-.1,0-.3-.1-.4-.1-.29-.4-.49-.79-.78-1.18-.2.1-.3.2-.49.2,0,.39-.1.68-.1,1.08-.2,0-.3,0-.4-.1a20.68,20.68,0,0,1,0-3.34ZM49.4,24v-.69c.2,0,.3,0,.4.1s.09.39.09.59c.2,0,.3,0,.4.1v.19h-.4c0,.59-.19,1.38.1,1.77.1.1.2.1.4.1v.3c-.4.09-.69.09-.79-.2-.3-.49-.1-1.28-.1-2-.1,0-.2-.09-.39-.09C49.11,24,49,24,49.4,24Zm8.45-.69h.49v.59h.4v.3c-.2,0-.3.09-.49.09a5.24,5.24,0,0,0,.09,1.77h.4v.3l-.1.1c-.39,0-.59,0-.69-.2a5,5,0,0,1-.1-2.06h-.39v-.3h.39Zm9.93.1a2,2,0,0,0,0,1.08c.59,0,1.37.1,1.77-.39C69.55,23.34,68.66,23.44,67.78,23.44Zm-6.59.39a2.62,2.62,0,0,1,1.28.59c.1,1.08.2,1.87-1,2.07a1.49,1.49,0,0,1-1.08-.1,1.66,1.66,0,0,1-.1-2.26A4.61,4.61,0,0,1,61.19,23.83ZM34,23.83a1.22,1.22,0,0,1,1.08.4c.29.39.1,1.37.1,1.76.09,0,.19.1.29.1v.2a.72.72,0,0,1-.78-.3,1.67,1.67,0,0,1-1.68.1,1.48,1.48,0,0,1-.19-.68c.49-.79,1.37-.3,2-.89,0-.1-.09-.2-.09-.29a1.48,1.48,0,0,0-1.28.09c-.1.2,0,.2-.3.2H33l.3-.59C33.49,24,33.68,23.93,34,23.83ZM44,24h.39v.2c.3-.1,1.08-.59,1.57-.1s.4,1.67.3,2.36h-.49c0-.5.1-2.26-.49-2.07h-.59c-.1.2-.3.3-.3.49-.1.5.1,1.18,0,1.58H44a4.73,4.73,0,0,0-.1-1.28,1.44,1.44,0,0,1-2.85.29c-.39-1.57,2.06-2.35,2.85-.39H44Zm3.54-.1c.59,0,1.37,0,1.37.69h-.39c-.2-.39-.79-.39-1.18-.3,0,.1-.1.1-.1.2s.1.2.1.3a9.29,9.29,0,0,1,1.77.68V26c-.3.89-2.16.79-2.26-.19h.39c.2.39.39.39.69.59.39-.1.69-.1.79-.59A14.36,14.36,0,0,0,47,25.11c0-.29-.1-.39,0-.69S47.24,24,47.54,23.93Zm16.7,0a1.34,1.34,0,0,1,.88.3,5.57,5.57,0,0,1,.1,2.26h-.39c0-.69.1-1.77-.3-2.07-.19-.19-.49-.1-.78,0-.1.1-.2.3-.39.4v1.67h-.2c-.2.09-.2-.1-.3-.3V24h.4a.35.35,0,0,0,.1.2Zm-33.11,0a3,3,0,0,1,1.08.2,5.82,5.82,0,0,1,.2,2.26H32c-.19-.79.1-1.48-.19-2.07l-.1-.09c-.3,0-.49.09-.79.09-.39.59-.1,1.67-.39,2.07h-.39V23.93h.29c.1.1.1.1.1.2A1.43,1.43,0,0,0,31.13,23.93Zm20.73,0c.2.1.2.3,0,.49-.3-.1-.49.1-.69.2,0,.2-.1.29-.1.49A3.17,3.17,0,0,1,51,26.49c-.1,0-.2-.1-.3-.1V24H51c0,.1.09.2.09.29C51.37,24.13,51.56,24.13,51.86,23.93Zm4.22,0c.69,0,1.09.2,1.28.69v.1H57a1,1,0,0,0-1.38-.3,1.19,1.19,0,0,0,.4,1.77,1.12,1.12,0,0,0,.78-.29c.1-.1.2-.3.3-.4s.19,0,.39,0A1.29,1.29,0,0,1,55.2,26a1.58,1.58,0,0,1,.1-2A2.37,2.37,0,0,0,56.08,23.93Zm15.23,0a3,3,0,0,1,1.48.3,8.88,8.88,0,0,0,.1,1.67c.09.29.19,0,.29.19a.14.14,0,0,0,0,.2l-.1.1a.6.6,0,0,1-.69-.3,1.59,1.59,0,0,1-1.86,0V25.6c.49-.78,1.28-.39,2-.78v-.3a.31.31,0,0,1-.19-.1c-.59-.29-1,.1-1.38.4h-.2v-.1c.1-.2.1-.3.3-.4A1.71,1.71,0,0,1,71.31,23.93Zm3.34,0a2.33,2.33,0,0,1,.89.2,3.86,3.86,0,0,1,.1,2.36h-.4A3.46,3.46,0,0,0,75,24.42h-.1a1.44,1.44,0,0,0-1,.3,9.94,9.94,0,0,0-.1,1.77.36.36,0,0,0-.2.09h-.09a9.44,9.44,0,0,1-.1-2.45c.19,0,.39-.1.39.1.2.09.49,0,.88-.3ZM29.06,24a.75.75,0,0,1,.5.1v2.45h-.5Zm30.07,0h.49v2.46h-.49Zm-6.88,0h.4c0,1-.2,2.36,1.08,2.06A4.62,4.62,0,0,0,54,24h.49a5.18,5.18,0,0,1-.1,2.46h-.29v-.3c-.2.1-.3.2-.49.3a2.1,2.1,0,0,1-.79.09c-.1-.09-.29-.19-.39-.29A3.41,3.41,0,0,1,52.25,24Zm8.65.2A1.24,1.24,0,0,0,60.51,26c.19.1.29.2.49.2.39-.1.68-.1.78-.49a1.33,1.33,0,0,0-.1-1.38C61.49,24.32,61.29,24.23,60.9,24.23Zm-18.57.09c-.1,0-.2.1-.3.1a1.23,1.23,0,0,0-.09,1.77,1,1,0,0,0,1.27-.2,3.16,3.16,0,0,0,0-1.37A1.83,1.83,0,0,0,42.33,24.32Zm25.45.59V26c0,.1.09.1.09.2,1,0,1.58.1,1.87-.59-.1-.19-.1-.29-.19-.49A5.1,5.1,0,0,0,67.78,24.91Zm-33.21.3c-.49.2-1,.1-1.38.29v.4a1.19,1.19,0,0,0,1.38-.2A.33.33,0,0,0,34.57,25.21Zm37.73.1A5,5,0,0,1,71,25.5c-.1.3-.1.49.2.69.49.3,1.17-.2,1.27-.49v-.39Z"/></svg>