<svg id="图层_1" data-name="图层 1" xmlns="http://www.w3.org/2000/svg" viewBox="0 0 88.45 40.66"><defs><style>.cls-1{fill:#003983;}.cls-2{fill:#241512;}</style></defs><title>画板 14 副本 2</title><path class="cls-1" d="M37,23.18a13.37,13.37,0,0,1-4.88-2s-.26-.14-.22-.29a8.75,8.75,0,0,1,.82-1.5c.07-.13,0-.36-.12-.39a8.14,8.14,0,0,1-1.05-.24c-.29,0-.3.12-.3.12v.72c-.19.63-.3.59-.3.59s-.82-.61-.88-.67a3.82,3.82,0,0,0-.69-.1,1.24,1.24,0,0,1,.12-.16,4,4,0,0,0,1.2-1.55s0-.43,0-.43l-.32-.43.83-.22s.48-.14.58,0a3,3,0,0,1,.22,1,2.13,2.13,0,0,0,1.26.87l1.61.46a.8.8,0,0,0,.33-.71c.09-.23-.76-.59-1.08-.66a3.44,3.44,0,0,1-1.69-.71c-.32-.24-.08-.47-.08-.47s.62-.19.8-.22S34.81,16,34.81,16c.4,0,.4-.12.4-.12L35.09,15c0-.12-.07-.36-.16-.33a16,16,0,0,1-2.83.59c-.15,0-.16-.74-.11-1.08a.6.6,0,0,0-.56-.67,1.77,1.77,0,0,1-.64-.26c-1,1.32.31,1.64.4,1.67.34.13.28.18.39.31s-.26.29-.51.37a12.68,12.68,0,0,1-3.36.63c-.52,0-.35.47-.35.47a2,2,0,0,1,.28.45c.17.4,1,.1,1.21,0,1-.26,1-.17,1-.17.16.17-.13.67-.13.67A4.86,4.86,0,0,1,28,19c-.18.07-.25,0-.25,0a.58.58,0,0,0,.28.6c.08,0,.88,0,.88,0l.11-.05c.09,0,.07.14.07.14a.79.79,0,0,0,.61.79,1.3,1.3,0,0,1,.86.51,5.25,5.25,0,0,1-4.28,1.85,1.76,1.76,0,0,0,.79.31,4.48,4.48,0,0,0,3.05-.61c.11-.09.94-.72,1.06-.85s.31-.1.31-.1l1.77,1.49c2.36,2,3.8.19,3.8.19Zm8.1-6.81a.9.9,0,0,0-.37-1.11c-.85-.53-.95-.81-.95-.81a.84.84,0,0,0-.35,1.1,1.3,1.3,0,0,0,1.67.82"/><path class="cls-1" d="M49.66,17.92c0,.07,0,3.48,0,3.48s-.72.13-.72.13c-.06.28.7,1.17.7,1.17s0,.06-.26.07c-1.15,0-1.38-.15-1.38-.15s.45-.44.45-.44V21.12a1.7,1.7,0,0,0,.82-.53c.1-.58-.1-.61-.1-.61l-.51.09c-.24,0-.21-.12-.21-.12v-.43a6.9,6.9,0,0,1,.86-.43,1.31,1.31,0,0,0,0-.57c-.05-.33-.88,0-.88,0l0-.57a2.62,2.62,0,0,0,.53-.14,4.53,4.53,0,0,1,.64-.14c.12,0,.12.21.11.29m-2.09,4.63a2.06,2.06,0,0,1-1-.19c0-.05.08-1.21.08-1.21.93,0,.93,0,.93,0a6.13,6.13,0,0,1,0,1.36M46.5,19s-.21-.58,0-.68a2,2,0,0,0,1-.19,1.25,1.25,0,0,1,.08.51.1.1,0,0,1-.12.1,3.37,3.37,0,0,0-.67.32c-.09.08-.18.2-.23-.06m.88,1.28a4.21,4.21,0,0,1-.73.07s0-.68,0-.75a1.17,1.17,0,0,0,.36.12,1.31,1.31,0,0,0,.48,0s.09,0,.09.22,0,.32-.18.35m2.93,2.33a.18.18,0,0,1,0-.22,1.53,1.53,0,0,0,.12-.59,21.2,21.2,0,0,1,0-3.48,9.22,9.22,0,0,1,.22-1.28s-.13-.41-1.15-.36c-.35,0-.76.31-1,.14s-.14-.23,0-.37a12.52,12.52,0,0,1,1.84-1.69s.33-.44-.4-.86c-.43-.24-.53-.39-1.08,0A6.83,6.83,0,0,1,47,15a.33.33,0,0,1-.38-.24l-.12-.08A1.53,1.53,0,0,0,46,15.81c0,.35.93,0,1.19-.16s1.36-.87,1.12-.23l-.73.81-.57.15s-.32.13,0,.4c0,0,.44.29.41.42s-.07.17-.68.46a.92.92,0,0,0-.31.24,0,0,0,0,0,0,0l-.46-.27h-.34s.12.82.11.92a21,21,0,0,0,.21,3.72l-1.16-.1a3.74,3.74,0,0,1-.43-4.26c.16-.31.38-.7-.21-1a7,7,0,0,1-.95-.29s-.39-.15-.34.37l.27.6s-.05.36-.2,1.2a3.82,3.82,0,0,0,.7,2.75s.17.29.12.39-.1,0-.1,0l-1.19-.11a.25.25,0,0,0-.33.2c0,.2-.25.89.12,1a13.12,13.12,0,0,1,5.64.41,10.54,10.54,0,0,0,3.2.28s2.2-.31,2.2-1.61c0,0-.47-.37-2.91.47m25.33-6.17A2.08,2.08,0,0,0,77,16s.26-.23.55-.52l.69-.75.26-.15v-.12a2.66,2.66,0,0,0-1.13-.62s-.13,0-.13,0a5.88,5.88,0,0,1-1.08,1.27,3.39,3.39,0,0,0-.89,1.16.53.53,0,0,0,.38.19m2.93.25a.3.3,0,0,0,0-.28,3.84,3.84,0,0,0-1.37-.3L77,16.2A10.78,10.78,0,0,1,72.89,20c-.08.09.15.64.15.64a.85.85,0,0,0,.31.07c.7,0,2.23-1.19,2.23-1.19.23,0,.33.33.33.33s-.09,2.63-.1,2.8c0,.58.23,1,.45,1s.63-.37.63-.37l0-2c0-.12-.27-2.36-.27-2.36a7.69,7.69,0,0,0,2-2.16M79,15.43a2.76,2.76,0,0,0,.51.94c1.31.58,3-.61,3.09-.67s.13-.46.13-.46a3.33,3.33,0,0,0-.44-.39l-.2-.06A20.82,20.82,0,0,1,79,15l-.06.26s0,0,.08.18"/><path class="cls-1" d="M83.82,16.59s-2.23.51-2.83.54c-.34,0-2.24.23-2.24.23a1,1,0,0,0-.87.86,2.45,2.45,0,0,0,0,.75s.73-.21,1.67-.42a4.75,4.75,0,0,1,.84-.08s.14,3.55.08,3.69,0,.52-.56.33a2.47,2.47,0,0,0-1.2-.37s0,.09.11.22a12.83,12.83,0,0,1,1.4,1.34,1,1,0,0,0,1.66-.85c0-.28-.3-3-.33-3.19a5.5,5.5,0,0,1,0-1.29s2.34-.31,2.8-.83c.15-.17,0-.66-.58-.93"/><path class="cls-1" d="M62.87,21.4s-1.1.17-1.1.14.12-.19.29-.32a3.75,3.75,0,0,0,.68-.64c.31-.67-.06-.64-.06-.64-.31-.11-.51.18-.58.27-.53.76-.55.68-.55.68a7.14,7.14,0,0,1,0-1.35l.8-.44c.24-.07.28-.56.13-.66a3.29,3.29,0,0,0-.9,0s-.1.05-.14,0,0-.36,0-.36l.68-.31c.18-.15.12-.55.12-.55a1,1,0,0,0-.51-.24l-1,0s-.26.07-.23-.08c.06-.32.76-.94.76-.94a2,2,0,0,1,.93.46c.38.33.77.6.77.6.07-1.69-.72-2-.86-2.07a.27.27,0,0,1-.14-.22c.43-.29.39-.38.39-.38-.44-1.14-1.22-.87-1.22-.87s-.48,1-.64,1.25a14.87,14.87,0,0,1-3.32,3.88,7,7,0,0,1-.78.42,1.15,1.15,0,0,0,1.37.7c.54-.12,1.88-1.84,1.88-1.84s.26.11.36.13l.68.11,0,.48-.79.23a.53.53,0,0,0-.37.5c0,.82.58.58.58.58l.66-.2a10.14,10.14,0,0,1,.11,1l-.74-.44a.81.81,0,0,0-.43.62.93.93,0,0,0,.7.65.14.14,0,0,1,0,.25c-1.72.91-1.84.85-1.84.85l-.12.3c0,.79,1.06.53,1.12.49a14.92,14.92,0,0,1,3-1.23c.22,0,.39-.43.39-.43l.16-.26c.14-.24-.25-.21-.25-.21m2.16.24a.58.58,0,0,1-.53,0,2.91,2.91,0,0,1-.22-1.61.33.33,0,0,1,.14,0,5.09,5.09,0,0,1,1.54.61S66,21.19,65,21.64Zm-.68-4.5.1-.13L65.71,17s.09.06,0,.22S65.52,18,65,18c0,0-.68.12-.7-.09Zm.24-1.7c0-.17,1.1-.18,1.23-.15s.16.4.16.4c-.11.54-.21.48-.21.48a3.08,3.08,0,0,1-1.23,0A2.65,2.65,0,0,1,64.59,15.44Zm3.27,5.12a6.72,6.72,0,0,1-1.22-.63s2.09-1.25,2.09-1.25a4.51,4.51,0,0,0-1.15-1,3.78,3.78,0,0,1-3,2c-.26,0-.31,0-.32-.23,0-.77.12-.79.12-.79a.49.49,0,0,1,.33.13c.27.25.87.06.87.06l.41-.36a1.43,1.43,0,0,0,.51-1.07,5.29,5.29,0,0,1,.37-1.7,2.48,2.48,0,0,0,.26-1c-.05-.88-.91-.6-1-.56a15.11,15.11,0,0,1-1.76.43c-.69.21-.6.35-.6.35l0,.68L63.6,19.5a24.82,24.82,0,0,0,.11,4.15c0,.24.3.36.3.36,1-.05,1.83-1.9,1.9-2.11.32-1.11.4-1,.4-1A6.81,6.81,0,0,1,68.1,22.4c.06.05.15,0,.23-.12s.59-.81.59-.81a2.46,2.46,0,0,0-1.06-.92Z"/><path class="cls-2" d="M26.85,26.17h.68c.27,0,.43.06.43.26s-.18.26-.42.26h-.69Zm-.56,1.95h1.19c.58,0,.73-.08.89-.21a.64.64,0,0,0,.25-.49.54.54,0,0,0-.44-.56.5.5,0,0,0,.35-.49c0-.24-.18-.6-.87-.6H26.29Zm.56-1h.76c.21,0,.42.08.42.29s-.17.35-.45.35h-.73Zm2.76.56h1l.19.48h.64l-1-2.35H29.8l-1,2.35h.62Zm.51-1.34h0l.35.93h-.72Zm3.45-.53h.55v2.35h-.59l-1.15-1.68h0v1.68h-.55V25.77h.62l1.12,1.64h0Zm1.75,2.35h-.59V25.77h.59v.95l1.07-.95h.77l-1.15,1,1.22,1.39h-.76l-.88-1-.27.23Zm4.27-1.18a1.36,1.36,0,1,0,1.35-1.23,1.22,1.22,0,0,0-1.35,1.23m.59,0a.76.76,0,1,1,.76.83.73.73,0,0,1-.76-.83m3.18,1.18h-.59V25.77h2v.41H43.36v.54H44.6v.41H43.36ZM49,26.54c0-.14-.13-.41-.62-.41-.28,0-.7.16-.7.82,0,.43.2.81.7.81a.57.57,0,0,0,.62-.45h.6a1.13,1.13,0,0,1-1.23.87A1.16,1.16,0,0,1,47.06,27a1.19,1.19,0,0,1,1.3-1.24c.84,0,1.18.49,1.22.83Zm.92.4a1.36,1.36,0,1,0,1.35-1.23,1.22,1.22,0,0,0-1.35,1.23m.59,0a.77.77,0,1,1,1.53,0,.77.77,0,1,1-1.53,0m5.3,1.18h-.55v-2h0l-.52,2h-.58l-.52-2h0v2h-.56V25.77h.87l.51,1.85h0l.5-1.85h.85Zm3.28,0h-.56v-2h0l-.53,2H57.4l-.51-2h0v2h-.55V25.77h.86l.51,1.85h0l.5-1.85h.86Zm2.83-.82c0,.62-.46.88-1.17.88a1.39,1.39,0,0,1-.9-.28.76.76,0,0,1-.21-.57V25.77h.6v1.52a.45.45,0,0,0,.5.48c.41,0,.57-.17.57-.45V25.77h.61Zm2.29-1.53h.55v2.35h-.59L63,26.44h0v1.68h-.54V25.77h.61l1.12,1.64h0Z"/><path class="cls-2" d="M65.26,28.12h.59V25.77h-.59Zm2.94-1.58a.55.55,0,0,0-.62-.41c-.29,0-.71.16-.71.82,0,.43.2.81.71.81a.58.58,0,0,0,.62-.45h.59a1.12,1.12,0,0,1-1.23.87A1.16,1.16,0,0,1,66.28,27a1.18,1.18,0,0,1,1.29-1.24c.85,0,1.19.49,1.22.83Zm1.64,1.1h1l.18.48h.64l-1-2.35H70l-1,2.35h.62Zm.51-1.34h0l.35.93H70Zm2.57,1.82h-.59V26.18h-.85v-.41h2.3v.41h-.86Zm1.16,0h.59V25.77h-.59Zm1-1.18a1.37,1.37,0,1,0,1.36-1.23,1.23,1.23,0,0,0-1.36,1.23m.6,0a.77.77,0,1,1,1.53,0,.77.77,0,1,1-1.53,0M80,25.77h.55v2.35H80l-1.15-1.68h0v1.68h-.55V25.77h.62L80,27.41h0Zm1.54,1.63c0,.13.08.38.59.38.28,0,.59-.06.59-.31s-.21-.23-.51-.29l-.29-.06c-.46-.09-.9-.17-.9-.69,0-.26.16-.72,1.08-.72s1.1.47,1.1.76h-.57c0-.11-.06-.36-.57-.36-.23,0-.5.07-.5.28s.19.23.3.25l.69.14c.38.08.74.21.74.63,0,.71-.87.77-1.11.77-1,0-1.21-.49-1.21-.78Z"/><path class="cls-1" d="M16.25,14.61a5.45,5.45,0,0,0-2.93.86l-2.88,1.86V10.88L5.37,15.15v8.1a5.43,5.43,0,0,0,3.74,5.16l1,.31a5.94,5.94,0,0,1-3.33-5.3,6.05,6.05,0,0,1,6.14-6A6.09,6.09,0,0,1,19,22.77H15.48a2.72,2.72,0,0,0-5.35.68h0a2.72,2.72,0,0,0,5.42.34H19A5.71,5.71,0,0,1,17.78,27s2.15-2.5,2.89-3.64a6,6,0,0,0,1-3.31,5.44,5.44,0,0,0-5.44-5.44h0"/></svg>