<svg id="图层_1" data-name="图层 1" xmlns="http://www.w3.org/2000/svg" viewBox="0 0 88.45 40.66"><defs><style>.cls-1{fill:#151d6b;}</style></defs><title>画板 14 副本 3</title><path class="cls-1" d="M36.5,12.61,29.34,29.69h-4.7L21.06,16.12a1.88,1.88,0,0,0-1-1.49,12.17,12.17,0,0,0-4.32-1.35l.15-.59h7.41a2.08,2.08,0,0,1,2.09,1.79l1.79,9.84,4.62-11.63h4.63ZM54.84,24.1c0-4.48-6.11-4.78-6.11-6.71,0-.6.59-1.2,1.79-1.35a7.59,7.59,0,0,1,4.32.75l.75-3.58a14.14,14.14,0,0,0-4.18-.75c-4.32,0-7.46,2.24-7.46,5.67,0,2.54,2.24,3.73,3.88,4.63s2.24,1.34,2.24,2.08c0,1.2-1.34,1.65-2.68,1.65a9.3,9.3,0,0,1-4.48-1l-.75,3.73a13.88,13.88,0,0,0,4.93.9C51.71,29.9,54.69,27.66,54.84,24.1Zm11.49,5.67h4l-3.58-17H63.05A1.87,1.87,0,0,0,61.26,14L54.69,29.69h4.63l.89-2.53h5.67l.45,2.53Zm-4.92-6,2.24-6.41,1.28,6.41Zm-18.65-11-3.58,17H34.71l3.58-17Z"/></svg>