<svg id="图层_1" data-name="图层 1" xmlns="http://www.w3.org/2000/svg" viewBox="0 0 88.45 40.66"><defs><style>.cls-1{fill:#f2a200;}.cls-2{fill:#e30816;}.cls-3{fill:#fff;}</style></defs><title>画板 14 副本 4</title><path d="M55.46,30.81a.18.18,0,0,0-.18.18.19.19,0,0,0,.18.19.2.2,0,0,0,.19-.19A.19.19,0,0,0,55.46,30.81Zm0,.34a.16.16,0,1,1,.16-.16A.16.16,0,0,1,55.46,31.15Z"/><path class="cls-1" d="M44.23,30.94A12.92,12.92,0,1,0,40,21.36a12.9,12.9,0,0,0,4.26,9.58Z"/><path class="cls-2" d="M48.85,20c0-.45-.13-.91-.21-1.37H40.73a10.14,10.14,0,0,1,.35-1.34h7.16a12.58,12.58,0,0,0-.54-1.37H41.62a10.67,10.67,0,0,1,.74-1.37h4.58a11.38,11.38,0,0,0-1-1.35h-2.6a10,10,0,0,1,1.32-1.37,12.92,12.92,0,1,0,0,19.14A16.61,16.61,0,0,0,46,29.6H43.38a14.8,14.8,0,0,1-1-1.37H47a10.28,10.28,0,0,0,.76-1.37H41.66a13.23,13.23,0,0,1-.56-1.35h7.14a10.22,10.22,0,0,0,.37-1.37,11.87,11.87,0,0,0,.22-1.37c0-.43.07-.89.07-1.34a9.53,9.53,0,0,0,0-1.46Z"/><path class="cls-3" d="M64,23.8a.4.4,0,0,1,.39-.44.42.42,0,0,1,.41.44.41.41,0,0,1-.41.43A.39.39,0,0,1,64,23.8Zm.39.32a.33.33,0,1,0,0-.65.31.31,0,0,0-.3.33.28.28,0,0,0,.3.32Zm0-.13H64.3v-.37h.24s0,.07,0,.11a.12.12,0,0,1-.06.09l.08.15h-.1l0-.13h-.06v-.07h0s0,0,0,0,0,0,0,0,0,0,0,0,0,0,0,0h0Zm-11.6-6.3-.24,1.46a2.58,2.58,0,0,0-1.24-.37c-1,0-1.78,1-1.78,2.52,0,1,.5,1.63,1.3,1.63A2.48,2.48,0,0,0,52,22.58l-.24,1.52a5,5,0,0,1-1.21.22c-1.52,0-2.46-1.11-2.46-2.91,0-2.39,1.28-4.07,3.13-4.07a3.16,3.16,0,0,1,.65.07l.57.13A1,1,0,0,0,52.79,17.69Zm-4.5,1h-.13c-.46,0-.74.24-1.15.89l.13-.85H45.88L45,24.19H46.4c.52-3.35.65-3.91,1.3-3.91h.09a5.23,5.23,0,0,1,.54-1.57l0,0Zm-8,5.43a3.07,3.07,0,0,1-1,.2c-.72,0-1.11-.42-1.11-1.22a4.35,4.35,0,0,1,.05-.48l.08-.54.07-.43L39,17.93h1.37l-.16.8h.72l-.17,1.35H40l-.37,2.28a1,1,0,0,0,0,.24c0,.28.13.39.45.39a.94.94,0,0,0,.37,0l-.15,1.17ZM34.9,20.47A1.56,1.56,0,0,0,36,22c.58.29.67.37.67.59s-.24.5-.78.5a3.73,3.73,0,0,1-1.24-.22l-.19,1.26.06,0,.24.05a1.52,1.52,0,0,0,.37,0,5.74,5.74,0,0,0,.76,0c1.48,0,2.15-.56,2.15-1.82a1.49,1.49,0,0,0-1-1.52c-.61-.28-.67-.35-.67-.59s.24-.43.69-.43A9.49,9.49,0,0,1,38,20l.2-1.26A8.26,8.26,0,0,0,37,18.6C35.45,18.63,34.88,19.47,34.9,20.47Zm28.51,3.72h-1.3l.06-.52a1.59,1.59,0,0,1-1.28.58c-1,0-1.7-.89-1.7-2.26,0-1.82,1.05-3.34,2.26-3.34a1.59,1.59,0,0,1,1.33.74l.3-1.92h1.37S63.41,24.19,63.41,24.19Zm-2-1.28c.65,0,1.08-.77,1.08-1.85,0-.7-.24-1.07-.74-1.07s-1.08.74-1.08,1.83c0,.74.24,1.09.74,1.09ZM44.51,24.08a4.3,4.3,0,0,1-1.46.24c-1.56,0-2.34-.85-2.34-2.46,0-1.87,1-3.23,2.43-3.23a1.8,1.8,0,0,1,1.89,2A5.84,5.84,0,0,1,44.86,22H42.1a.33.33,0,0,0,0,.15c0,.63.42,1,1.22,1a3,3,0,0,0,1.46-.35l-.24,1.35Zm-.76-3.26v-.28a.62.62,0,0,0-.68-.7c-.43,0-.76.35-.89,1ZM29.6,24.19H28.24L29,19l-1.8,5.15h-1l-.11-5.11-.85,5.11H24l1.09-6.69h2l.06,4.15,1.33-4.15h2.17L29.6,24.19ZM33,21.75l-.31,0c-.78,0-1.17.31-1.17.85,0,.35.17.54.5.54C32.62,23.12,33,22.58,33,21.75Zm1,2.44H32.91l0-.57a1.71,1.71,0,0,1-1.48.65c-.76,0-1.26-.58-1.26-1.47,0-1.35.89-2.11,2.46-2.11.15,0,.34,0,.58,0a1.11,1.11,0,0,0,.05-.34c0-.37-.24-.5-.9-.5a4.55,4.55,0,0,0-1.15.13l-.19.06-.13,0,.19-1.24a5.39,5.39,0,0,1,1.68-.28c1.19,0,1.84.54,1.84,1.59a6.54,6.54,0,0,1-.11,1.08l-.3,1.94,0,.35-.05.28,0,.22a1.55,1.55,0,0,1,0,.15Zm21-2.44c-.15,0-.21,0-.3,0-.78,0-1.2.31-1.2.85a.49.49,0,0,0,.53.54c.52,0,1-.54,1-1.37Zm1,2.44H54.89l0-.57a1.68,1.68,0,0,1-1.47.65c-.76,0-1.26-.58-1.26-1.47,0-1.35.89-2.11,2.45-2.11.15,0,.35,0,.57,0a1.84,1.84,0,0,0,.06-.34c0-.37-.24-.5-.89-.5A4.65,4.65,0,0,0,53.2,20l-.18.06-.13,0,.2-1.24a5.33,5.33,0,0,1,1.67-.28c1.2,0,1.83.54,1.83,1.59a4.85,4.85,0,0,1-.11,1.08l-.28,1.94-.05.35,0,.28,0,.22-.05.15Zm3.72-5.5h-.13c-.46,0-.74.24-1.15.89l.13-.85H57.35l-.85,5.46h1.37c.52-3.35.65-3.91,1.3-3.91h.09a5.23,5.23,0,0,1,.54-1.57l0,0Z"/></svg>