<svg id="图层_1" data-name="图层 1" xmlns="http://www.w3.org/2000/svg" viewBox="0 0 88.45 40.66"><defs><style>.cls-1{fill:#5fa14f;}.cls-2{fill:#386caa;}.cls-3{fill:#b92a3b;}</style></defs><title>画板 14 副本 6</title><path class="cls-1" d="M55.5,24.35h3.65a1.44,1.44,0,0,0,.94-.47,1.34,1.34,0,0,0,.35-.94c0-.82-.35-1.41-1.18-1.41H55.62A22.17,22.17,0,0,0,55.5,24.35Z"/><path class="cls-1" d="M58.32,3.55a6.07,6.07,0,0,0-2.11.35,9.9,9.9,0,0,0-1.88,1.18A3.92,3.92,0,0,0,53.15,7a6.76,6.76,0,0,0-.35,2.23v5.88h8.58c1.88,0,3.17.94,3.17,2.58a2.14,2.14,0,0,1-.12.94,2.09,2.09,0,0,1-.58.83c-.24.23-.59.35-.83.58a2.49,2.49,0,0,1-.94.12v.24c1.88,0,3.18.94,3.18,2.58s-1.65,2.82-3.65,2.82H52.92V37.4h8.34a6.76,6.76,0,0,0,2.23-.35,9.9,9.9,0,0,0,1.88-1.18A4.59,4.59,0,0,0,66.55,34a6.76,6.76,0,0,0,.35-2.23V3.55Z"/><path class="cls-1" d="M59.73,18.12a1.33,1.33,0,0,0-.35-.94,1.55,1.55,0,0,0-.82-.47H55.5v2.82h3.06a1.44,1.44,0,0,0,.94-.47A1.16,1.16,0,0,0,59.73,18.12Z"/><path class="cls-2" d="M27.06,3.55a6.81,6.81,0,0,0-2.24.35,6.48,6.48,0,0,0-1.88,1.18A4.5,4.5,0,0,0,21.77,7a6.76,6.76,0,0,0-.35,2.23V22.94a11.83,11.83,0,0,0,4.93,1.41,4.26,4.26,0,0,0,1.18-.11,2.72,2.72,0,0,0,.94-.59,1.82,1.82,0,0,0,.7-.94,4,4,0,0,0,.24-1.18V15.07h4.94v6.46c0,2.47-1.65,4.7-6.94,4.7a32.28,32.28,0,0,1-5.88-.58V37.4h8.23A6.76,6.76,0,0,0,32,37.05a10.3,10.3,0,0,0,1.89-1.18A4.67,4.67,0,0,0,35.05,34a4.6,4.6,0,0,0,.35-2.23V3.55Z"/><path class="cls-3" d="M42.69,3.55a6.76,6.76,0,0,0-2.23.35,9.9,9.9,0,0,0-1.88,1.18A3.92,3.92,0,0,0,37.4,7a4.6,4.6,0,0,0-.35,2.23v7.52c1.41-1.17,3.88-2.11,7.87-1.88,2.24.24,4.47.59,4.47.59v2.47A7.86,7.86,0,0,0,45,16.71c-3-.23-4.94,1.18-4.94,3.88S42,24.94,45,24.47a9.62,9.62,0,0,0,4.35-1.17v2.46a18.22,18.22,0,0,1-4.47.59c-3.88.24-6.46-.59-7.87-1.88V37.4h8.34a6.81,6.81,0,0,0,2.24-.35,6.48,6.48,0,0,0,1.88-1.18A4.56,4.56,0,0,0,50.68,34,4.73,4.73,0,0,0,51,31.76V3.55Z"/></svg>