<svg id="图层_1" data-name="图层 1" xmlns="http://www.w3.org/2000/svg" viewBox="0 0 88.45 40.66"><defs><style>.cls-1{fill:#006fcf;}.cls-2{fill:#fff;}</style></defs><title>画板 14 副本 7</title><path class="cls-1" d="M19,4.55H69V35.61H19Z"/><path class="cls-2" d="M25.16,15.42l-.78-2-.77,2Zm19.93-1.81a1.25,1.25,0,0,0-.61-.09H43v1.12h1.46a1.39,1.39,0,0,0,.61-.08.53.53,0,0,0,.26-.52A1.79,1.79,0,0,0,45.09,13.61Zm10.52-.17-.77,2h1.55Zm13,11.3v-4H39.14l-1,1.12-1-1.12H29.73v8.54h7.16L38,28.19l1,1.12h4.57v-1.9h.26a4,4,0,0,0,1.55-.26v2.16H65.54a3,3,0,0,0,3.36-3.19A3.61,3.61,0,0,0,68.64,24.74ZM43.88,26H42.33v1.9H39.65L38.1,26.12,36.46,28H31.11v-6h5.44l1.55,1.81,1.64-1.81H44c1.46,0,2.33.69,2.33,2S45.43,26,43.88,26Zm8-.34a2.07,2.07,0,0,1,.26,1.12V28H50.7v-.95a2,2,0,0,0-.18-1,1.24,1.24,0,0,0-.94-.26h-1.3v2.16H46.81V22H50a3.29,3.29,0,0,1,1.64.26,1.51,1.51,0,0,1,.77,1.29,1.67,1.67,0,0,1-.86,1.55c0,.26.26.43.34.61Zm5.35-2.25h-3.1v.95h3v1.3h-3v1h3.1V28H52.68v-6h4.57v1.38ZM60.62,28H57.94V26.64h2.68c.26,0,.43,0,.52-.09a.47.47,0,0,0,.17-.35.45.45,0,0,0-.17-.34.64.64,0,0,0-.44-.09h-.25c-1.13,0-2.59-.08-2.59-1.9a1.73,1.73,0,0,1,2-1.81h2.59v1.38h-2.5a.9.9,0,0,0-.52.09.43.43,0,0,0-.17.34c0,.18.08.35.26.35s.26.09.51.09h.78a2,2,0,0,1,1.55.51,1.58,1.58,0,0,1,.44,1.3A1.89,1.89,0,0,1,60.62,28Zm4.92,0H62.86V26.64h2.68c.25,0,.43,0,.51-.09a.45.45,0,0,0,.18-.35.43.43,0,0,0-.18-.34c-.08-.09-.26-.09-.43-.09h-.26c-1.12,0-2.58-.08-2.58-1.9a1.72,1.72,0,0,1,2-1.81h2.67v1.38h-2.5a.92.92,0,0,0-.52.09.47.47,0,0,0-.17.34c0,.18.09.35.26.35s.26.09.52.09h.77a2,2,0,0,1,1.56.51,1.61,1.61,0,0,1,.43,1.3A2,2,0,0,1,65.54,28Z"/><path class="cls-2" d="M32.58,23.44v.87h2.93v1.38H32.58v.95h3.1L37.15,25l-1.38-1.56Zm9.75,1.3h1.55c.52,0,.78-.26.78-.69s-.26-.69-.78-.69H42.24Zm-1.47,2.41V22.93L39.05,25ZM50.27,19a4.64,4.64,0,0,0,1.89.43h2.51l.51-1.29h1l.52,1.29H66V10.85H52.25a4.73,4.73,0,0,0-2,.43v-.43H32.15l-.78,1.81-.78-1.81H22.48L19,19.39h4.4l.52-1.3h.95l.52,1.3H50.35Zm-14.93-.86H33.87V14l-1.72,4.23H30.94L29.21,14v4.23H26.28l-.52-1.29H23.09l-.61,1.29H20.93l2.42-5.95h2.07l2.07,5.17V12.23h2.24L31.37,16l1.55-3.79h2.33v5.95Zm5.35-4.66H37.58v1h3v1.29h-3v1h3.11v1.29H36.12V12.23h4.57Zm6,2.33A2.18,2.18,0,0,1,46.9,17v1.21H45.43v-.95a2,2,0,0,0-.17-1,1.35,1.35,0,0,0-.95-.26H43V18H41.47V12.23h3.1a3.29,3.29,0,0,1,1.64.26,1.41,1.41,0,0,1,.69,1.29A1.76,1.76,0,0,1,46,15.33,1.89,1.89,0,0,1,46.64,15.85Zm2.42,2.33H47.5V12.23H49Zm.52-3a3.17,3.17,0,0,1,.77-2.33,2.43,2.43,0,0,1,2-.69h1.29v1.38H52.34c-.52,0-.78.09-1,.35a1.67,1.67,0,0,0-.35,1.2,1.94,1.94,0,0,0,.35,1.3c.17.26.6.26.86.26h.43l1.9-4.58h2.07l2.07,5.18V12.05h2.16v.09L63,15.85V12.23H64.5v5.95h-2v-.09L60.19,14v4.14H57.43v-.09l-.52-1.2H54.32l-.52,1.29H52.25a2.92,2.92,0,0,1-2-.69A2.8,2.8,0,0,1,49.58,15.16Zm.08,8.28H48.19v1.12h1.47a1.41,1.41,0,0,0,.61-.08.53.53,0,0,0,.25-.52.4.4,0,0,0-.25-.43C50.18,23.44,49.92,23.44,49.66,23.44Z"/></svg>