<svg id="图层_1" data-name="图层 1" xmlns="http://www.w3.org/2000/svg" viewBox="0 0 88.45 40.66"><defs><style>.cls-1{fill:#469034;}.cls-2{fill:#040000;}.cls-3{fill:#89bf22;}</style></defs><title>画板 14 副本 8</title><path class="cls-1" d="M19.13,11.9l1.53,1.44,1.62-.09s.09.72.18,1.3c.36,2.37,2.07,14.27,2.07,14.27l-6.3,1.26Z"/><path class="cls-2" d="M58.85,21.14v-.27c0-.51-.14-1-.7-1.19a1.14,1.14,0,0,0-1.31.46,3.65,3.65,0,0,0-.7,1.18c-.27,1-.46,2.07-.65,3.11,0,.11.15.32.27.38a1.62,1.62,0,0,0,2.1-.69,5.47,5.47,0,0,0,1-3ZM54.2,17.75h2.12l-.11,1.44s.27-.43.35-.52a3.24,3.24,0,0,1,2.74-1.08A2.49,2.49,0,0,1,61.43,20,6.86,6.86,0,0,1,60,25.16a4.32,4.32,0,0,1-4.91,1.42c-.2,1-.74,3.7-.74,3.7H51.89L54.2,17.75ZM34.6,26.69s.46-2.44.69-3.63L37,13.83h2.52s-.63,3.28-1,5c.39-.29.69-.56,1-.78A3,3,0,0,1,42,17.66a1.61,1.61,0,0,1,1.28,1.46,6.86,6.86,0,0,1,0,1.92c-.31,1.83-1.07,5.62-1.07,5.62H39.68s.3-1.63.45-2.43c.18-1,.38-2,.55-3a4,4,0,0,0,0-.85.75.75,0,0,0-1.11-.7,2,2,0,0,0-1.15,1.2,18,18,0,0,0-.66,2.28c-.23,1-.67,3.55-.67,3.55Z"/><path class="cls-2" d="M75.94,23.84c.73-1.95,2.31-6.09,2.31-6.09h2.62s-2.89,6.2-4,8.44a9.8,9.8,0,0,1-2.92,3.65,6.75,6.75,0,0,1-1.88.88l-.72-2.16a3,3,0,0,0,.39-.11A4.39,4.39,0,0,0,74,26.59a1.21,1.21,0,0,0,.17-.83c-.44-2.51-1.44-8-1.44-8l2.6,0,.66,6.08"/><path class="cls-2" d="M31.77,19.62a2.89,2.89,0,0,1,1.09-.16,8.2,8.2,0,0,1,1.2.25L34.61,18a7,7,0,0,0-.7-.24,4.73,4.73,0,0,0-3.17.13,2.82,2.82,0,0,0-1.91,2.25,2.46,2.46,0,0,0,1.28,2.53c.3.21.6.4.89.61a1,1,0,0,1,.45,1.09A1.06,1.06,0,0,1,30.4,25a6.29,6.29,0,0,1-2.11-.46l-.61,1.66a1.24,1.24,0,0,0,.36.19,5.48,5.48,0,0,0,4.28,0A2.65,2.65,0,0,0,33,21.81c-.28-.2-.58-.37-.86-.57a3.83,3.83,0,0,1-.62-.51A.68.68,0,0,1,31.77,19.62Z"/><path class="cls-2" d="M51.12,18.2a3.86,3.86,0,0,0-4.25-.06,5.56,5.56,0,0,0-2.81,5.7,3.16,3.16,0,0,0,3.43,3,4.44,4.44,0,0,0,3-1.1,5.93,5.93,0,0,0,1.89-5.58A2.82,2.82,0,0,0,51.12,18.2ZM48.9,24.27a2.2,2.2,0,0,1-.33.35,1.37,1.37,0,0,1-.51.26,1.08,1.08,0,0,1-.59,0,1.21,1.21,0,0,1-.79-.85,3.34,3.34,0,0,1-.08-.49v-.41a5.37,5.37,0,0,1,.87-2.88,1.57,1.57,0,0,1,1-.74,1.07,1.07,0,0,1,.44,0,1,1,0,0,1,.93,1A5.3,5.3,0,0,1,48.9,24.27Z"/><path class="cls-2" d="M65,13.94a1.44,1.44,0,0,0-1.39,1.5,1.15,1.15,0,0,0,1.17,1.2,1.44,1.44,0,0,0,1.52-1.51A1.2,1.2,0,0,0,65,13.94Z"/><polygon class="cls-2" points="61.52 26.67 64.03 26.69 65.78 17.74 63.41 17.75 61.52 26.67"/><path class="cls-2" d="M72.83,15.8l.48-1.93a4.14,4.14,0,0,0-2.43-.12A4,4,0,0,0,68.08,17c-.06.27-.18.74-.18.74H66.82l-.4,1.87,1.15.07-1.31,7H68.8l1.35-7h1.62l.42-1.91H70.46a3,3,0,0,1,.67-1.64C71.62,15.58,72.22,15.72,72.83,15.8Z"/><path class="cls-3" d="M18.3,12.15h0C18,11.22,17.36,10,16.25,10L16,10a1.43,1.43,0,0,0-1.16-.56c-2.69,0-3.92,4-4.18,5l-2.48.75L6.53,27.92l11.7,2.16.9-18.18Zm-2.31.7-2.17.66a4,4,0,0,1,1.88-2.64A6.13,6.13,0,0,1,16,12.85ZM15,10.1a1,1,0,0,1,.26.12c-1.26.58-1.92,2.22-2.19,3.52l-1.65.5C11.91,12.29,13.67,9.77,15,10.1Zm1.26,6.75-.9,2.34c-1.71-.81-2.66-.16-2.79.36-.09.36,0,.9,1.08,1.53a3.06,3.06,0,0,1,1.71,2.7A2.91,2.91,0,0,1,12.47,27a3.63,3.63,0,0,1-3.24-1.26L9.86,24c.63.81,2.61,1.44,2.7.18s-2.43-1.71-2.25-4a3.89,3.89,0,0,1,4.14-3.69,3.09,3.09,0,0,1,1.8.36Zm.35-4.18a5.68,5.68,0,0,0-.26-1.94c.63,0,1.07.8,1.36,1.6Z"/></svg>