<svg id="图层_1" data-name="图层 1" xmlns="http://www.w3.org/2000/svg" viewBox="0 0 88.45 40.66"><defs><style>.cls-1{fill:#fff;stroke:#d1d1d3;stroke-miterlimit:10;stroke-width:0.75px;}.cls-2{fill:#ff6d00;}</style></defs><title>画板 14 副本 9</title><path class="cls-1" d="M67.65,33.4A4.5,4.5,0,0,1,63.2,38H25.26A4.51,4.51,0,0,1,20.8,33.4h0V8.11a4.51,4.51,0,0,1,4.46-4.56H63.2a4.5,4.5,0,0,1,4.45,4.56h0Z"/><path class="cls-2" d="M67.3,33.23a4.4,4.4,0,0,1-4.46,4.35H35.06S61.29,33.44,67.3,21.31ZM42,20.34a3.42,3.42,0,0,0,6.84,0,3.33,3.33,0,0,0-3.23-3.42h-.19A3.39,3.39,0,0,0,42,20.28h0Z"/><path d="M29.67,16.92h1.25v6.84H29.67Zm6.85,3.42a3.32,3.32,0,0,0,3.23,3.42h.19a4.12,4.12,0,0,0,1.55-.31V22a2.25,2.25,0,0,1-1.55.73,2.16,2.16,0,0,1-2.18-2.14h0v-.15a2.22,2.22,0,0,1,2.15-2.28h0a2.17,2.17,0,0,1,1.55.73V17.44A4.26,4.26,0,0,0,39.92,17a3.3,3.3,0,0,0-3.38,3.22h0v.1Zm15.13,1-1.87-4.46H48.54l2.8,6.84h.72l2.8-6.84H53.52Zm3.83,2.38h3.63V22.62H56.73V20.76H59V19.62H56.73V18.06h2.38V16.92H55.48ZM64.09,19A2.07,2.07,0,0,0,62,16.92H59.84v6.84h1.24V21.07h.11l1.86,2.69h1.56L62.53,21A2,2,0,0,0,64.09,19ZM61.5,20.13h-.31V18.06h.31c.83,0,1.24.31,1.24,1s-.37,1-1.2,1ZM25.78,16.92h-2v6.84h1.86a3.41,3.41,0,0,0,3.53-3.29h0v-.13a3.21,3.21,0,0,0-3-3.42h-.43Zm-.42,5.7h-.31V18.06h.42a2.19,2.19,0,0,1,2.37,2,2.62,2.62,0,0,1,0,.28,2.2,2.2,0,0,1-2.09,2.3A2.68,2.68,0,0,1,25.36,22.62Zm9-3.11c-.83-.31-1-.41-1-.83a.84.84,0,0,1,.94-.72,1.24,1.24,0,0,1,1,.52l.73-.94a2.67,2.67,0,0,0-2-.83A2,2,0,0,0,32,18.62h0v.06c0,.94.41,1.35,1.55,1.87.73.21,1.24.41,1.24,1a1,1,0,0,1-1,.93h-.06a1.34,1.34,0,0,1-1.35-.93l-.83.82a2.32,2.32,0,0,0,2.24,1.25,2.16,2.16,0,0,0,2.28-2v-.19c0-.93-.41-1.35-1.76-2Z"/></svg>