<svg id="图层_1" data-name="图层 1" xmlns="http://www.w3.org/2000/svg" viewBox="0 0 40.71 14.13"><defs><style>.cls-1{fill:#2b813a;}.cls-2{fill:#090104;}.cls-3{fill:#fff;}.cls-4{fill:#6fa632;}</style></defs><title>画板 1</title><path class="cls-1" d="M7.15,2.83,8,3.61l.87,0s.05.39.1.7C9.14,5.54,10.06,12,10.06,12l-3.39.68Z"/><path class="cls-2" d="M28.56,7.81a.65.65,0,0,0,0-.14c0-.28-.07-.54-.37-.64a.62.62,0,0,0-.71.24,2,2,0,0,0-.37.64c-.15.55-.25,1.12-.36,1.68,0,.06.08.17.15.2A.87.87,0,0,0,28,9.42a2.89,2.89,0,0,0,.53-1.61ZM26.06,6H27.2l-.06.78.19-.28a1.76,1.76,0,0,1,1.48-.58A1.33,1.33,0,0,1,30,7.21,3.7,3.7,0,0,1,29.17,10a2.33,2.33,0,0,1-2.65.77c-.11.52-.4,2-.4,2H24.81L26.06,6ZM15.49,10.8l.37-2,.95-5h1.36s-.34,1.77-.52,2.68c.21-.16.38-.3.56-.42a1.6,1.6,0,0,1,1.26-.2.87.87,0,0,1,.69.79,4,4,0,0,1,0,1c-.17,1-.58,3-.58,3H18.23l.24-1.31c.1-.54.21-1.08.3-1.62a1.78,1.78,0,0,0,0-.46A.4.4,0,0,0,18.2,7a1,1,0,0,0-.62.65,8.67,8.67,0,0,0-.36,1.23c-.13.55-.36,1.91-.36,1.91Z"/><path class="cls-2" d="M37.77,9.27,39,6h1.42s-1.56,3.34-2.18,4.55a5.29,5.29,0,0,1-1.57,2,3.72,3.72,0,0,1-1,.47l-.39-1.16a1.25,1.25,0,0,0,.21-.06,2.42,2.42,0,0,0,1.21-1,.78.78,0,0,0,.09-.45C36.56,9,36,6,36,6h1.4l.35,3.28"/><path class="cls-2" d="M22,8.9v.22a.66.66,0,0,0,1.24.38,2.89,2.89,0,0,0,.5-2,.56.56,0,0,0-.5-.54.77.77,0,0,0-.77.41A2.91,2.91,0,0,0,22,8.9m.48,2a1.71,1.71,0,0,1-1.85-1.62A3,3,0,0,1,22.1,6.2a2.09,2.09,0,0,1,2.3,0,1.49,1.49,0,0,1,.66,1.06,3.19,3.19,0,0,1-1,3,2.4,2.4,0,0,1-1.6.59m10.12-.09L33.27,7l-.62,0,.21-1h.59l.09-.4a2.13,2.13,0,0,1,1.51-1.76,2.26,2.26,0,0,1,1.31.06l-.26,1c-.33,0-.65-.11-.91.16a1.59,1.59,0,0,0-.37.89h.93l-.22,1h-.87l-.73,3.8ZM15.2,7a4.5,4.5,0,0,0-.64-.13A1.49,1.49,0,0,0,14,7a.35.35,0,0,0-.14.59,1.81,1.81,0,0,0,.33.28l.46.3a1.44,1.44,0,0,1-.36,2.5,3,3,0,0,1-2.3,0,.75.75,0,0,1-.2-.1l.33-.9a3.27,3.27,0,0,0,1.14.25.58.58,0,0,0,.57-.34A.52.52,0,0,0,13.55,9c-.15-.12-.32-.22-.48-.33a1.34,1.34,0,0,1-.69-1.36,1.54,1.54,0,0,1,1-1.22A2.58,2.58,0,0,1,15.12,6a3.69,3.69,0,0,1,.38.13L15.2,7ZM32.3,6l-.94,4.83-1.36,0L31,6Zm-.52-.59a.62.62,0,0,1-.63-.65.78.78,0,0,1,.75-.81.64.64,0,0,1,.69.64.76.76,0,0,1-.81.82"/><path class="cls-3" d="M28.56,7.81A2.89,2.89,0,0,1,28,9.42a.87.87,0,0,1-1.13.37c-.07,0-.16-.14-.15-.2.11-.56.21-1.13.36-1.68a2,2,0,0,1,.37-.64A.62.62,0,0,1,28.19,7c.3.1.36.36.37.64a.65.65,0,0,1,0,.14M22,8.9a2.91,2.91,0,0,1,.47-1.55.77.77,0,0,1,.77-.41.56.56,0,0,1,.5.54,2.89,2.89,0,0,1-.5,2,.72.72,0,0,1-.77.34A.73.73,0,0,1,22,9.12V8.9"/><path class="cls-4" d="M5.79,3.25a3.14,3.14,0,0,0-.14-1c.34,0,.58.43.74.87Zm-.49-1a3.13,3.13,0,0,1,.16,1.07L4.29,3.7A2.2,2.2,0,0,1,5.3,2.28ZM3,4.1C3.26,3,4.21,1.69,4.92,1.86a.61.61,0,0,1,.14.07A2.66,2.66,0,0,0,3.88,3.82ZM6.71,3c-.17-.5-.51-1.16-1.11-1.16H5.45a.79.79,0,0,0-.62-.3c-1.45,0-2.12,2.17-2.26,2.7l-1.34.41L.36,11.47l6.31,1.16.48-9.8L6.71,3Z"/><path class="cls-3" d="M5.6,5.5a1.68,1.68,0,0,0-1-.19,2.1,2.1,0,0,0-2.23,2C2.3,8.51,3.66,8.75,3.61,9.43s-1.11.34-1.45-.1l-.34,1A1.92,1.92,0,0,0,3.56,11,1.57,1.57,0,0,0,5.12,9.24a1.65,1.65,0,0,0-.93-1.46c-.58-.34-.63-.63-.58-.82s.58-.63,1.51-.2L5.6,5.5Z"/></svg>