<svg id="图层_1" data-name="图层 1" xmlns="http://www.w3.org/2000/svg" viewBox="0 0 40.71 14.13"><defs><style>.cls-1{fill:#024c83;}.cls-2{fill:#dd8b1c;}</style></defs><title>画板 1 副本 11</title><path class="cls-1" d="M23.55,9.76H21.94l.58-2.86a2.62,2.62,0,0,0,0-.37c0-.48-.26-.72-.77-.72a1.22,1.22,0,0,0-.87.36,1.58,1.58,0,0,0-.48.86L19.9,9.76H18.3l1.44-7.44h1.58l-.63,3.23a2.29,2.29,0,0,1,1.6-.66,2.38,2.38,0,0,1,1.35.33,1.27,1.27,0,0,1,.53,1.11,2.68,2.68,0,0,1-.05.46Zm5.55-.65a3.8,3.8,0,0,1-2.17.65,3.2,3.2,0,0,1-1.8-.46,1.72,1.72,0,0,1-.74-1.49,2.86,2.86,0,0,1,1.37-2.42,3.94,3.94,0,0,1,2.18-.63,2.82,2.82,0,0,1,1.73.53,1.76,1.76,0,0,1,.77,1.49,2.25,2.25,0,0,1,0,.44,2.88,2.88,0,0,1-1.3,1.89Zm-.35-2.34a1.35,1.35,0,0,0-.23-.84.81.81,0,0,0-.75-.38,1.46,1.46,0,0,0-1.27.74,2.68,2.68,0,0,0-.43,1.49c0,.8.35,1.2,1,1.2a1.35,1.35,0,0,0,1.08-.6,2.81,2.81,0,0,0,.52-1.15,2.38,2.38,0,0,0,0-.46ZM35.3,9a3.14,3.14,0,0,1-2,.72c-.7,0-1.15-.17-1.36-.53l-.49,2.53H29.88l1.35-6.88,1.36,0-.12.59a2.7,2.7,0,0,1,1.88-.71,2.33,2.33,0,0,1,1.55.5,1.7,1.7,0,0,1,.58,1.37,2.47,2.47,0,0,1,0,.54A3.11,3.11,0,0,1,35.3,9Zm-.55-2.31c0-.74-.31-1.11-.92-1.11a1.4,1.4,0,0,0-1.24.73,2.55,2.55,0,0,0-.41,1.43c0,.77.34,1.16,1,1.16a1.28,1.28,0,0,0,1.06-.58,2.94,2.94,0,0,0,.46-1.14,2.09,2.09,0,0,0,0-.49ZM16.43,5.66a.6.6,0,0,1,.35-.11,1.21,1.21,0,0,1,.83.42l.66.8.3-1.5-.33-.2a3.2,3.2,0,0,0-1.45-.3,2.22,2.22,0,0,0-1.32.4,1.84,1.84,0,0,0-.79,1.22,1.15,1.15,0,0,0,0,.26,1,1,0,0,0,.55.87l1,.44c.33.15.47.33.43.54S16.34,9,16,9s-1.41-.81-1.41-.81L14.37,8,14.1,9.36l.19.1a3.55,3.55,0,0,0,1.45.3,3,3,0,0,0,1.5-.35,1.74,1.74,0,0,0,1-1.23,2.12,2.12,0,0,0,0-.24,1,1,0,0,0-.57-.89l-1-.46c-.34-.16-.5-.33-.46-.54a.65.65,0,0,1,.26-.39Z"/><path class="cls-2" d="M6.25,7.51H7a.58.58,0,0,0,.58-.58A.59.59,0,0,0,7,6.34H4.78V9a1.63,1.63,0,0,1,.12-.59,1.51,1.51,0,0,1,1.35-.9Zm4.4-1.17a.93.93,0,0,0-.92.93v1.4a.92.92,0,0,0,.92.92h1.86V6.35H10.65Z"/><path class="cls-2" d="M11.84,4.09h-.77a2.43,2.43,0,0,0-4.85,0H5.45a.67.67,0,0,0-.67.67v.68H7A1.49,1.49,0,0,1,8.46,6.92a1.45,1.45,0,0,1-.12.59A1.47,1.47,0,0,1,7,8.41H6.26A.59.59,0,0,0,5.68,9v.57H8.46v.91H4.78v.68a.67.67,0,0,0,.67.67h6.39a.67.67,0,0,0,.67-.67v-.68H10.65A1.83,1.83,0,0,1,8.82,8.65V7.25a1.83,1.83,0,0,1,1.83-1.82h1.86V4.76A.67.67,0,0,0,11.84,4.09Zm-5.17,0a2,2,0,0,1,3.95,0Z"/></svg>