<svg id="图层_1" data-name="图层 1" xmlns="http://www.w3.org/2000/svg" viewBox="0 0 40.71 14.13"><defs><style>.cls-1{fill:#0c0205;}.cls-2{fill:#726da5;}</style></defs><title>画板 1 副本 14</title><path class="cls-1" d="M23.18,4.4a2.26,2.26,0,0,0-1.63.72A3.13,3.13,0,0,0,20.64,7,2.16,2.16,0,0,0,21,8.74a1.59,1.59,0,0,0,1.36.73,2.32,2.32,0,0,0,1.73-.73,3.06,3.06,0,0,0,.81-1.81,2.81,2.81,0,0,0-.27-1.81A1.77,1.77,0,0,0,23.18,4.4ZM24,6.94A2.13,2.13,0,0,1,23.5,8.1a1.23,1.23,0,0,1-1,.47.88.88,0,0,1-.76-.47,1.55,1.55,0,0,1-.2-1.1,2.2,2.2,0,0,1,.5-1.23A1.22,1.22,0,0,1,23,5.3a.94.94,0,0,1,.81.47A2,2,0,0,1,24,6.94ZM36.77,4.49l-1.08,2.1-.64-2.1H34L35.1,7.72l-.87,1.66h.91l2.63-4.89Zm-5.43,2.1-.64-2.1H29.62l1.13,3.23-.86,1.66h.9l2.63-4.89h-1Zm-3.75-2.1H26l-.73,4.9h1l.21-1.72a3,3,0,0,0,1.4-.19,1.87,1.87,0,0,0,1-1.24c.05-.17.19-1-.18-1.37A1.81,1.81,0,0,0,27.59,4.49Zm.34,1.56a.77.77,0,0,1-.44.72,2.55,2.55,0,0,1-.86.07l.21-1.55a2.93,2.93,0,0,1,.86.09C27.81,5.47,28,5.57,27.93,6.05Zm-9,.42-1.86,0,.29-2h-.95l-.72,4.89h1l.29-2,1.86,0-.29,2h.94l.73-4.89h-1ZM14.28,4.4a2.17,2.17,0,0,0-.78.12A1.68,1.68,0,0,0,12.42,5.7a1.33,1.33,0,0,0,.63,1.51c.42.31.6.15,1,.73a.46.46,0,0,1-.26.56,1.34,1.34,0,0,1-.95.12,1.32,1.32,0,0,1-.73-.5l-.18,1.07a1.68,1.68,0,0,0,1.17.29,1.85,1.85,0,0,0,1.57-.59A1.64,1.64,0,0,0,15,7.45a1.17,1.17,0,0,0-.53-.69,3.27,3.27,0,0,1-1-.65.52.52,0,0,1,.29-.78,1.22,1.22,0,0,1,1.1,0,2,2,0,0,1,.34.25l.18-1a3.45,3.45,0,0,0-1.08-.19Z"/><path class="cls-2" d="M10.51,5.14a1.11,1.11,0,0,0-.62-1c0,.1,0,.2,0,.3l.37,4.84v0a1.66,1.66,0,0,1-.4,1.09,1.12,1.12,0,0,0,.93-1.1Z"/><path class="cls-2" d="M9.62,4.49A1.29,1.29,0,0,0,8.33,3.23H4.4A1.29,1.29,0,0,0,3.11,4.5L2.75,9.31v0a1.3,1.3,0,0,0,1.3,1.29H8.71A1.3,1.3,0,0,0,10,9.34ZM6.37,7h0a1.6,1.6,0,0,1-1.6-1.59V5.09a.27.27,0,0,1,.53,0v.27a1,1,0,0,0,.31.75,1.08,1.08,0,0,0,.75.31h0A1.06,1.06,0,0,0,7.43,5.36V5.09a.27.27,0,1,1,.53,0v.27A1.59,1.59,0,0,1,6.37,7Z"/></svg>