<svg id="图层_1" data-name="图层 1" xmlns="http://www.w3.org/2000/svg" viewBox="0 0 40.71 14.13"><defs><style>.cls-1{fill:#ca2a1f;}</style></defs><title>画板 1 副本 3</title><path class="cls-1" d="M36.83,8.55l.66-3,.13-.6,0,.6L37.4,8.41Zm-1.56,1.76h1.19l.19-.87h.68l-.06.87h1.22l.1-6.81H37l-1.75,6.81Zm-.28,0,.12-1H34c.06-.17.12-.3.18-.46L35.89,3.5H33.48l-.12,1h1c-.06.13-.12.3-.19.5l-1.75,5.31Zm-2.69,0,.12-1H31.29c.07-.17.13-.3.19-.46L33.23,3.5H30.82l-.12,1h1c-.06.13-.12.3-.19.5l-1.75,5.31ZM28,8.55l.65-3,.13-.6,0,.6-.19,2.88Zm-1.57,1.76h1.19l.19-.87h.69l-.07.87H29.6l.1-6.81H28.13Zm-2.47,0h2.25l.16-1H25.25L26,3.5H24.85ZM22.53,7h-.28l.34-2.49h.28c.19,0,.25.1.22.34l-.25,1.79C22.81,6.85,22.69,7,22.53,7ZM23,3.5H21.53l-.94,6.81h1.19l.34-2.39h.47c.85,0,1.32-.44,1.44-1.43L24.25,5C24.38,4,24,3.5,23,3.5ZM19.15,8.91c0,.37-.16.53-.38.53s-.31-.13-.25-.56l.57-4c.06-.37.15-.54.37-.54s.32.14.25.57Zm1.19-.06.5-3.66C21,3.83,20.4,3.4,19.46,3.4S18,3.9,17.84,5l-.51,3.65c-.18,1.36.44,1.79,1.38,1.79S20.18,9.94,20.34,8.85ZM16.43,3.5,16,6.29l-.59.13.4-2.92H14.64l-.94,6.81h1.19l.41-3h.56l-.4,3h1.19l.93-6.81ZM12,10.4c1.22,0,1.57-.92,1.57-1.82a3.8,3.8,0,0,0-.5-1.79l-.35-.67a2.88,2.88,0,0,1-.37-1.26c0-.33.09-.53.31-.53s.31.1.25.63l-.09.63,1.12-.26,0-.27c.16-1.23-.4-1.62-1.28-1.62s-1.5.63-1.5,1.69a4.06,4.06,0,0,0,.5,1.69l.31.66a3.31,3.31,0,0,1,.38,1.37c0,.33-.06.66-.35.66s-.34-.13-.25-.7l.1-.76-1.13.26-.06.37C10.48,10,11.11,10.4,12,10.4ZM1.62,11.47l2.44-.6.19-1.49A1.84,1.84,0,0,0,6,10.6,2.19,2.19,0,0,0,8.1,8.35,1.89,1.89,0,0,0,6.79,6.49H8.35L9,2.34l-2.44.6L6.32,4.43A1.85,1.85,0,0,0,4.56,3.2,2.19,2.19,0,0,0,2.47,5.46,1.89,1.89,0,0,0,3.78,7.32H2.22Z"/></svg>