<svg id="图层_1" data-name="图层 1" xmlns="http://www.w3.org/2000/svg" viewBox="0 0 43 43"><defs><style>.cls-1{fill:none;stroke:#152b50;stroke-miterlimit:10;stroke-width:2px;}</style></defs><title>画板 1</title><path class="cls-1" d="M7.69,41.55H2.83a1.28,1.28,0,0,1-1.29-1.28h0v-22A1.28,1.28,0,0,1,2.83,17H7.69A1.28,1.28,0,0,1,9,18.24v22A1.28,1.28,0,0,1,7.69,41.55Z"/><path class="cls-1" d="M14.56,18l-.29,22.45a1.26,1.26,0,0,0,1.14,1.29H33.58a2.87,2.87,0,0,0,2.86-2.15L41,23.39a5.1,5.1,0,0,0-3.59-6.26A4.83,4.83,0,0,0,36.29,17l-3.71-.15A1.79,1.79,0,0,1,30.82,15a3.11,3.11,0,0,1,0-.32c.71-3.72,1.29-11.44-4.58-13.3A1.14,1.14,0,0,0,24.79,2a1.12,1.12,0,0,0-.08.51c.14,2.86-.14,9.44-4,13.3a3.32,3.32,0,0,1-2.43,1L15.7,17a1,1,0,0,0-1.13.88A.49.49,0,0,0,14.56,18Z"/></svg>