<svg id="图层_1" data-name="图层 1" xmlns="http://www.w3.org/2000/svg" viewBox="0 0 43 43"><defs><style>.cls-1{fill:none;stroke:#152b50;stroke-miterlimit:10;stroke-width:2px;}</style></defs><title>画板 1 副本 3</title><path class="cls-1" d="M26.05,6.46a.46.46,0,0,1,.4.14A17.84,17.84,0,0,1,39.76,23.76a15.8,15.8,0,0,1-.8,5.06V29"/><path class="cls-1" d="M4.75,29A18.1,18.1,0,0,1,4,23.63a17.57,17.57,0,0,1,13-17"/><path class="cls-1" d="M33.76,36.67a17.89,17.89,0,0,1-12.11,4.79A17.37,17.37,0,0,1,9.28,36.4"/><circle class="cls-1" cx="21.65" cy="6.33" r="5.06"/><circle class="cls-1" cx="36.69" cy="33.08" r="5.06"/><circle class="cls-1" cx="6.48" cy="33.08" r="5.06"/></svg>