<svg id="图层_1" data-name="图层 1" xmlns="http://www.w3.org/2000/svg" viewBox="0 0 43 43"><defs><style>.cls-1{fill:#152b50;}</style></defs><title>画板 1 副本 4</title><path class="cls-1" d="M30.44,16.25a3.41,3.41,0,1,1,3.4-3.41h0a3.32,3.32,0,0,1-3.23,3.41Zm0-4.87A1.49,1.49,0,0,0,29,12.84a1.46,1.46,0,0,0,2.92,0A1.5,1.5,0,0,0,30.44,11.38ZM21.56,29.63h-.49a7.68,7.68,0,0,1-5.6-2.07,7.72,7.72,0,0,1-1.7-5.71H4.53L14,12.24l6.21-.73a15.57,15.57,0,0,1,4.26-4.63A20.93,20.93,0,0,1,30.56,3.6a27.29,27.29,0,0,1,9-1.46h1.7v.37a23,23,0,0,1-.61,7.29,22.88,22.88,0,0,1-8.88,13.38v5.48L21.56,38ZM22,27.08a2,2,0,0,1,2.07,2v3.31l5.35-4.75V22.82a1.8,1.8,0,0,1,.85-1.58A20.82,20.82,0,0,0,39,4.45c-12,.24-16.42,8-16.66,8.39a1.65,1.65,0,0,1-1.59,1l-5.59.73-4.62,4.62h3.65a2.06,2.06,0,0,1,1.46.61,2.29,2.29,0,0,1,.6,1.58,5.43,5.43,0,0,0,1.22,4.38,5,5,0,0,0,3.65,1.34Zm-10.7,7.17L4.28,36.08,7.69,31l-5-.85,8.64-6.81v1a7.08,7.08,0,0,0,.85,3,10.13,10.13,0,0,0,6.57,4.38l.85.24L13,38.51Zm.24-2.67a2.08,2.08,0,0,1,1.95,1.34L14,34l1-1a10.54,10.54,0,0,1-3.53-2.56,12.73,12.73,0,0,1-1.82-2.67l-1,.73h.12a2.31,2.31,0,0,1,1.59,1.21,2.2,2.2,0,0,1-.13,1.95l-.24.24,1.22-.24C11.34,31.7,11.46,31.58,11.58,31.58Z"/></svg>