<svg id="图层_1" data-name="图层 1" xmlns="http://www.w3.org/2000/svg" viewBox="0 0 43 43"><defs><style>.cls-1,.cls-2{fill:#152b50;}.cls-2{stroke:#152b50;stroke-miterlimit:10;}</style></defs><title>画板 1 副本 5</title><path class="cls-1" d="M28.16,11.23A3.82,3.82,0,1,1,32,7.41h0A3.86,3.86,0,0,1,28.16,11.23Zm0-5.9a2.07,2.07,0,0,0-2.08,2.06v0A2.16,2.16,0,0,0,28.16,9.5a2.08,2.08,0,0,0,2.09-2.07v0A2.15,2.15,0,0,0,28.16,5.33Z"/><path class="cls-1" d="M21.1,36c-.23,0-.46-.12-.46-.24a1.15,1.15,0,0,1-.35-1.27l3.94-6a1.87,1.87,0,0,0,.23-1.85l-2.9-1.86a4.86,4.86,0,0,1-2.43-3.7c0-.24,0-.35.12-.47l3.93-8c.12-.23.35-.46.47-.46a.69.69,0,0,1,.69.11l6.26,3.59,4.51-7.18a.94.94,0,0,1,1.24-.47.93.93,0,0,1,.47,1.24.51.51,0,0,1-.09.16l-5,8A1,1,0,0,1,30.6,18l-6.26-3.59-3.36,7a3.52,3.52,0,0,0,1.28,2.08c.11,0,.11.12.23.12l2.9,2.08a.11.11,0,0,1,.11.12,3.2,3.2,0,0,1,.23,4.05l-3.94,6C21.56,36,21.45,36,21.1,36Zm-14.82,4a1,1,0,0,1-.93-.7c-.12-.46.23-1,.58-1,4.05-1,9.61-10.07,11.35-13.55a.94.94,0,0,1,1.62.93c-.35.46-6.83,12.85-12.39,14.36Zm5.9-22.82a.56.56,0,0,1-.46-.23.92.92,0,0,1-.23-1.27l3.94-5a4.09,4.09,0,0,1,2.66-1.62,2.07,2.07,0,0,1,1.62.46l2.08,2.09a.88.88,0,0,1,0,1.27h0a.9.9,0,0,1-1.27,0h0l-2.08-2a.37.37,0,0,0-.24-.12,3.19,3.19,0,0,0-1.38,1l-3.94,4.86A.72.72,0,0,1,12.18,17.25Z"/><path class="cls-2" d="M21.1,36c-.23,0-.46-.12-.46-.24a1.15,1.15,0,0,1-.35-1.27l3.94-6a1.87,1.87,0,0,0,.23-1.85l-2.9-1.86a4.86,4.86,0,0,1-2.43-3.7c0-.24,0-.35.12-.47l3.93-8c.12-.23.35-.46.47-.46a.69.69,0,0,1,.69.11l6.26,3.59,4.51-7.18a.94.94,0,0,1,1.24-.47.93.93,0,0,1,.47,1.24.51.51,0,0,1-.09.16l-5,8A1,1,0,0,1,30.6,18l-6.26-3.59-3.36,7a3.52,3.52,0,0,0,1.28,2.08c.11,0,.11.12.23.12l2.9,2.08a.11.11,0,0,1,.11.12,3.2,3.2,0,0,1,.23,4.05l-3.94,6C21.56,36,21.45,36,21.1,36Zm-14.82,4a1,1,0,0,1-.93-.7c-.12-.46.23-1,.58-1,4.05-1,9.61-10.07,11.35-13.55a.94.94,0,0,1,1.62.93c-.35.46-6.83,12.85-12.39,14.36Zm5.9-22.82a.56.56,0,0,1-.46-.23.92.92,0,0,1-.23-1.27l3.94-5a4.09,4.09,0,0,1,2.66-1.62,2.07,2.07,0,0,1,1.62.46l2.08,2.09a.88.88,0,0,1,0,1.27h0a.9.9,0,0,1-1.27,0h0l-2.08-2a.37.37,0,0,0-.24-.12,3.19,3.19,0,0,0-1.38,1l-3.94,4.86A.72.72,0,0,1,12.18,17.25Z"/><path class="cls-2" d="M28.16,11.23A3.82,3.82,0,1,1,32,7.41h0A3.86,3.86,0,0,1,28.16,11.23Zm0-5.9a2.07,2.07,0,0,0-2.08,2.06v0A2.16,2.16,0,0,0,28.16,9.5a2.08,2.08,0,0,0,2.09-2.07v0A2.15,2.15,0,0,0,28.16,5.33Z"/></svg>