<?xml version="1.0" encoding="utf-8"?>
<!-- Generator: Adobe Illustrator 24.0.1, SVG Export Plug-In . SVG Version: 6.00 Build 0)  -->
<svg version="1.1" id="图层_1" xmlns="http://www.w3.org/2000/svg" xmlns:xlink="http://www.w3.org/1999/xlink" x="0px" y="0px"
	 viewBox="0 0 200 200" style="enable-background:new 0 0 200 200;" xml:space="preserve">
<style type="text/css">
	.st0{fill:#FFFFFF;}
</style>
<path class="st0" d="M117.3,82.6h52c6.3,0,11.7,5,11.7,11.7v75.3c0,6.3-5,11.7-11.7,11.7h-75c-6.3,0-11.7-5-11.7-11.7v-52.3h-52
	c-6.3,0-11.7-5-11.7-11.3V30.6c0-6.3,5-11.7,11.7-11.7h75.3c6.3,0,11.7,5,11.7,11.7v52H117.3z M117.3,94.3v11.7
	c0,6.3-5,11.7-11.7,11.7H93.9v46.3c0,3.3,2.7,5.7,5.7,5.7h63.7c3.3,0,5.7-2.7,5.7-5.7v-64c0-3.3-2.7-5.7-5.7-5.7H117.3L117.3,94.3z
	 M30.6,36.3v63.7c0,3.3,2.7,5.7,5.7,5.7h63.7c1.7,0,3-0.7,4-1.7s1.7-2.7,1.7-4V36.3c0-1.7-0.7-3-1.7-4c-1-1-2.7-1.7-4-1.7H36.3
	c-1.3,0-3,0.7-4,1.7C31.3,33.3,30.6,34.6,30.6,36.3z M169.6,65.3h-11.7c0-12.7-10.3-23-23-23V30.6C153.9,30.6,169.6,45.9,169.6,65.3
	z M30.6,134.6h11.7c0,12.7,10.3,23,23,23v11.7C45.9,169.6,30.6,153.9,30.6,134.6z"/>
<path class="st0" d="M135.6,122.6v5.3h14v11h4v5.3h-16c3.3,4.3,9.3,7,17.3,7.7c-1.3,1.3-2.7,3.7-3.3,5.3
	c-8.7-1.7-14.3-4.7-18.3-10.3c-2.7,4.7-8.3,8.3-18.7,10.3c-0.7-1.3-2-3.7-3.3-5c10-2,14.7-5,17-8.3h-15.7v-5.3h4.3v-11h13v-5H135.6
	L135.6,122.6z M129.9,132.9h-8v6h8V132.9z M143.9,132.9h-8.3v6h8.3V132.9z M126.9,112.3v3.7h11.3v-3.7h5.7v3.7h9v5.3h-9v4.3h-5.7
	v-4.3h-11.3v4.3h-5.7v-4.3h-9v-5.3h9v-3.7H126.9z M70.9,43.3v10.3h20.3v30.3h-7v-3H70.9v19h-7.3v-19H50.3v3.3h-7V53.6h20.3V43.3
	C63.6,43.3,70.9,43.3,70.9,43.3z M63.6,60.6H50.3v13.3h13.3V60.6z M83.9,60.6H70.6v13.3h13.3V60.6z"/>
</svg>
