<svg id="图层_1" data-name="图层 1" xmlns="http://www.w3.org/2000/svg" viewBox="0 0 30 30"><defs><style>.cls-1{fill:#fff;}.cls-2{fill:#1b2c59;}</style></defs><title>画板 1</title><circle class="cls-1" cx="15" cy="15" r="15"/><path class="cls-2" d="M11.44,11.79l-3,7.1h-2L5,13.24a.76.76,0,0,0-.44-.61,5,5,0,0,0-1.79-.56l.06-.25H5.94a.86.86,0,0,1,.87.74l.74,4.09,1.92-4.83h1.92Zm7.63,4.77c0-1.86-2.55-2-2.55-2.79,0-.25.25-.49.75-.56a3.3,3.3,0,0,1,1.8.31L19.38,12a5.74,5.74,0,0,0-1.74-.31c-1.8,0-3.1.93-3.1,2.35,0,1.06.93,1.55,1.61,1.92s.93.56.93.87c0,.5-.56.68-1.11.68a3.75,3.75,0,0,1-1.86-.43l-.31,1.55a5.67,5.67,0,0,0,2,.37C17.76,19,19,18,19.07,16.56Zm4.77,2.36h1.67L24,11.85H22.47a.78.78,0,0,0-.74.5L19,18.89h1.93l.37-1.06h2.35l.19,1.06Zm-2.05-2.48.93-2.67.54,2.67Zm-7.74-4.59-1.49,7.07H10.7l1.49-7.07Z"/></svg>