<svg id="图层_1" data-name="图层 1" xmlns="http://www.w3.org/2000/svg" viewBox="0 0 30 30"><defs><style>.cls-1{fill:#fff;}.cls-2{fill:#e99613;}.cls-3{fill:#d71718;}</style></defs><title>画板 1 副本</title><circle class="cls-1" cx="15" cy="15" r="15"/><path class="cls-2" d="M14.76,20a6.56,6.56,0,1,0-2.16-4.86A6.56,6.56,0,0,0,14.76,20Z"/><path class="cls-3" d="M17.11,14.43c0-.23-.07-.46-.11-.69H13c0-.23.11-.47.17-.69H16.8c-.09-.23-.17-.47-.28-.69H13.44a7.88,7.88,0,0,1,.37-.7h2.33a7,7,0,0,0-.5-.68H14.32a5.46,5.46,0,0,1,.67-.69A6.55,6.55,0,1,0,15,20a7.23,7.23,0,0,0,.66-.69H14.33a6.63,6.63,0,0,1-.49-.69h2.32a6.75,6.75,0,0,0,.39-.69H13.46c-.11-.23-.2-.46-.29-.69H16.8c.08-.22.13-.46.19-.69s.09-.47.11-.7,0-.45,0-.68a5.71,5.71,0,0,0,0-.74Z"/><path class="cls-1" d="M24.81,16.37a.21.21,0,0,1,.2-.22.22.22,0,0,1,0,.44A.21.21,0,0,1,24.81,16.37Zm.2.17a.17.17,0,0,0,.17-.17.16.16,0,0,0-.17-.16.15.15,0,0,0-.15.16.15.15,0,0,0,.15.17Zm0-.07h0v-.19h.12s0,0,0,.06a.05.05,0,0,1,0,0l0,.08H25l0-.07h0v0h0s0,0,0,0h0s0,0,0,0h0Zm-5.89-3.2L19,14a1.3,1.3,0,0,0-.63-.18c-.53,0-.9.52-.9,1.27,0,.52.25.83.66.83a1.2,1.2,0,0,0,.6-.18l-.12.78a2.91,2.91,0,0,1-.62.11c-.77,0-1.25-.57-1.25-1.48,0-1.21.65-2.06,1.59-2.06a1.69,1.69,0,0,1,.33,0l.29.07A.61.61,0,0,0,19.1,13.27Zm-2.28.51h-.06c-.24,0-.38.12-.59.45l.07-.43H15.6l-.44,2.77h.7c.27-1.7.33-2,.66-2h.05a2.58,2.58,0,0,1,.27-.8Zm-4.07,2.76a2.11,2.11,0,0,1-.5.1c-.37,0-.56-.21-.56-.62a1.94,1.94,0,0,1,0-.24l0-.28,0-.22.3-1.88h.7l-.08.4h.36l-.08.69h-.38l-.19,1.15a.57.57,0,0,0,0,.13c0,.14.07.19.23.19a.5.5,0,0,0,.19,0l-.08.6ZM10,14.68a.81.81,0,0,0,.53.78c.3.14.34.18.34.29s-.12.26-.39.26a2,2,0,0,1-.63-.11l-.1.64h0l.12,0,.19,0a3,3,0,0,0,.39,0c.75,0,1.09-.28,1.09-.92a.76.76,0,0,0-.5-.77c-.31-.15-.34-.18-.34-.3s.12-.22.35-.22l.51,0,.1-.64a4.32,4.32,0,0,0-.62,0C10.31,13.75,10,14.18,10,14.68Zm14.46,1.89h-.66l0-.26a.81.81,0,0,1-.65.29c-.51,0-.86-.45-.86-1.14,0-.93.53-1.7,1.15-1.7a.79.79,0,0,1,.67.37l.16-1H25S24.49,16.57,24.49,16.57Zm-1-.65c.33,0,.55-.39.55-.94,0-.35-.12-.54-.38-.54s-.55.38-.55.93c0,.37.12.55.38.55Zm-8.56.59a2,2,0,0,1-.73.13c-.8,0-1.19-.43-1.19-1.25s.51-1.64,1.23-1.64a.91.91,0,0,1,1,1,2.84,2.84,0,0,1-.09.7h-1.4a.2.2,0,0,0,0,.07c0,.32.21.49.62.49a1.55,1.55,0,0,0,.74-.18l-.13.68Zm-.38-1.65v-.14a.31.31,0,0,0-.34-.35c-.22,0-.39.17-.46.49ZM7.34,16.57H6.65L7.06,14l-.92,2.61H5.66L5.6,14l-.43,2.59H4.52l.55-3.4h1l0,2.11.67-2.11h1.1l-.55,3.4Zm1.74-1.23-.15,0c-.4,0-.59.16-.59.43s.08.28.25.28S9.07,15.75,9.08,15.34Zm.52,1.23H9v-.29a.88.88,0,0,1-.75.33c-.39,0-.64-.29-.64-.75,0-.68.45-1.06,1.25-1.06l.29,0a.53.53,0,0,0,0-.18c0-.19-.13-.25-.46-.25a2.58,2.58,0,0,0-.58.06l-.1,0H8l.1-.63A2.67,2.67,0,0,1,9,13.73c.61,0,.94.27.94.8a3.09,3.09,0,0,1-.06.55l-.15,1,0,.18,0,.14,0,.11s0,.08,0,.08Zm10.64-1.23-.16,0c-.39,0-.6.16-.6.43a.25.25,0,0,0,.26.28c.27,0,.49-.28.5-.69Zm.52,1.23h-.59v-.29a.86.86,0,0,1-.75.33c-.38,0-.64-.29-.64-.75,0-.68.46-1.06,1.25-1.06l.29,0a1.05,1.05,0,0,0,0-.18c0-.19-.12-.25-.45-.25a2.77,2.77,0,0,0-.6.06l-.09,0h-.06l.1-.63a2.59,2.59,0,0,1,.85-.14c.6,0,.92.27.92.8a2.8,2.8,0,0,1-.05.55l-.15,1,0,.18,0,.14v.11l0,.08Zm1.88-2.79h-.06c-.24,0-.38.12-.59.45l.07-.43h-.64L21,16.57h.69c.27-1.7.33-2,.66-2h.05a2.58,2.58,0,0,1,.27-.8Z"/></svg>