<svg id="图层_1" data-name="图层 1" xmlns="http://www.w3.org/2000/svg" viewBox="0 0 30 30"><defs><style>.cls-1{fill:#fff;}.cls-2{fill:#2a9e3b;}.cls-3{fill:#d72335;}.cls-4{fill:#0a5d9d;}</style></defs><title>画板 1 副本 5</title><circle class="cls-1" cx="15" cy="15" r="15"/><path class="cls-2" d="M24.38,9.19H20.81a2.24,2.24,0,0,0-2,2.2v2.07c0,.17,0,.17.17.17h3.25a1.91,1.91,0,0,1,.58.1.93.93,0,0,1,.8,1l0,.13a1,1,0,0,1-.71.68l-.32.08a.41.41,0,0,0,.18.05,1.72,1.72,0,0,1,.72.25.92.92,0,0,1,.27,1.28,1,1,0,0,1-.23.24,1.71,1.71,0,0,1-1,.31H18.9c-.15,0-.15,0-.15.14v4.18c0,.14,0,.14.16.14h3.28a2.33,2.33,0,0,0,2.32-2.2V9.32c0-.13,0-.13-.13-.13Zm-4.35,8h1.31a.56.56,0,0,0,.45-.23.55.55,0,0,0,.07-.61.61.61,0,0,0-.58-.32H20c-.08,0-.11,0-.11.1v1c0,.08,0,.11.12.11Zm0-1.79h1.14a.56.56,0,0,0,.59-.51.5.5,0,0,0-.46-.54h0c-.41,0-.82,0-1.24,0-.08,0-.08,0-.08.11v.87c0,.08,0,.11.11.1l0,0Z"/><path class="cls-3" d="M18.11,14.69v5.18a2.42,2.42,0,0,1-.18,1.06A2.32,2.32,0,0,1,16,22.27H12.51c-.16,0-.16,0-.16-.15V17.26s0,0,.06,0a2.5,2.5,0,0,0,.41.25,4.69,4.69,0,0,0,1.38.36,8.66,8.66,0,0,0,1.44,0,9.8,9.8,0,0,0,1.69-.23.1.1,0,0,0,.09-.11h0v-.69c0-.11,0-.11-.11-.07a4.75,4.75,0,0,1-1.23.38,3,3,0,0,1-1.4,0,1.38,1.38,0,0,1-1-1.21A1.79,1.79,0,0,1,13.8,15a1.44,1.44,0,0,1,1.14-.81,4,4,0,0,1,1.93.21,4.89,4.89,0,0,1,.48.2c.07,0,.09,0,.09-.06v-.72a.09.09,0,0,0-.09-.1,11,11,0,0,0-1.26-.2,8.16,8.16,0,0,0-1.31,0,4.89,4.89,0,0,0-1.88.38,2.38,2.38,0,0,0-.44.25s-.06.06-.1,0,0-.06,0-.1V11.28a2.25,2.25,0,0,1,1.93-2.06,4.19,4.19,0,0,1,.5,0h3.13c.17,0,.17,0,.17.16Z"/><path class="cls-4" d="M11.67,14.74V20a2.12,2.12,0,0,1-.76,1.66,2.31,2.31,0,0,1-1.54.6H6.05c-.14,0-.14,0-.14-.16V17.81c0-.14,0-.14.15-.11a10.4,10.4,0,0,0,2.73.23,3.78,3.78,0,0,0,1.51-.34,1.42,1.42,0,0,0,.86-1.28c0-.85,0-1.7,0-2.55,0-.08,0-.11-.11-.1H9.31c-.1,0-.12,0-.12.12v2.37a1.17,1.17,0,0,1-.13.55,1.16,1.16,0,0,1-1,.56,4.48,4.48,0,0,1-1.91-.39c-.27-.12-.23-.05-.23-.34V11.39a2,2,0,0,1,.74-1.6,2.28,2.28,0,0,1,1.42-.6h3.45c.14,0,.15,0,.15.13v5.42Z"/></svg>