<svg id="图层_1" data-name="图层 1" xmlns="http://www.w3.org/2000/svg" viewBox="0 0 30 30"><defs><style>.cls-1{fill:#fff;}.cls-2{fill:#df610f;}.cls-3{fill:#070001;}.cls-4{fill:none;}</style></defs><title>画板 1 副本 2</title><circle class="cls-1" cx="15" cy="14.99" r="15"/><path class="cls-2" d="M14,13.88a1.93,1.93,0,1,0,3.86,0A1.88,1.88,0,0,0,16,12h-.1A1.91,1.91,0,0,0,14,13.84h0Z"/><path class="cls-3" d="M7,12h.7v3.86H7Zm3.86,1.93a1.88,1.88,0,0,0,1.82,1.93h.11a2.23,2.23,0,0,0,.88-.18v-.82a1.24,1.24,0,0,1-.88.41A1.22,1.22,0,0,1,11.59,14h0v-.08a1.26,1.26,0,0,1,1.22-1.29h0a1.24,1.24,0,0,1,.88.41v-.82a2.49,2.49,0,0,0-.88-.23,1.86,1.86,0,0,0-1.91,1.81h0v.06Zm8.54.58L18.38,12h-.7l1.58,3.86h.41L21.24,12h-.76Zm2.17,1.35h2v-.65H22.3V14.11h1.28v-.64H22.3v-.88h1.34V12h-2Zm4.85-2.69A1.17,1.17,0,0,0,25.28,12H24.05v3.86h.7V14.29h.06l1.06,1.52h.87l-1.17-1.58A1.12,1.12,0,0,0,26.45,13.12ZM25,13.76h-.18V12.59H25c.47,0,.7.18.7.59s-.21.58-.68.58ZM4.83,12H3.72v3.86h1a1.93,1.93,0,0,0,2-1.86h0v-.07A1.81,1.81,0,0,0,5.07,12H4.83ZM4.6,15.16H4.42V12.59h.24A1.24,1.24,0,0,1,6,13.72v.16a1.24,1.24,0,0,1-1.18,1.29A.81.81,0,0,1,4.6,15.16Zm5.09-1.75c-.47-.18-.59-.23-.59-.47a.47.47,0,0,1,.53-.41.72.72,0,0,1,.58.29l.41-.52a1.47,1.47,0,0,0-1.11-.47A1.12,1.12,0,0,0,8.34,12.9h0v0c0,.53.23.76.88,1.05.41.12.7.24.7.59a.54.54,0,0,1-.55.53h0a.77.77,0,0,1-.76-.53l-.46.47a1.32,1.32,0,0,0,1.26.7,1.22,1.22,0,0,0,1.29-1.14V14.5c0-.53-.24-.76-1-1.11Z"/><path class="cls-4" d="M30,15A15,15,0,1,0,7.4,27.91C25,26.1,30,15,30,15Z"/><path class="cls-2" d="M7.4,27.91A15,15,0,0,0,30,15S25,26.1,7.4,27.91Z"/></svg>