<svg id="图层_1" data-name="图层 1" xmlns="http://www.w3.org/2000/svg" viewBox="0 0 30 30"><defs><style>.cls-1{fill:#fff;}.cls-2{fill:#1169a6;}.cls-3{fill:#1c1615;}</style></defs><title>画板 1 副本 3</title><circle class="cls-1" cx="15" cy="15" r="15"/><path class="cls-2" d="M21.09,11a5.4,5.4,0,0,0-.1-.58,4.07,4.07,0,0,0-1-2A4.77,4.77,0,0,0,17.48,7a5.66,5.66,0,0,0-.84-.12.2.2,0,0,1-.1,0H14.15a.15.15,0,0,1-.09,0,3.91,3.91,0,0,0-.48.05,4.37,4.37,0,0,0-.91.24,4.4,4.4,0,0,0-2.89,4,4.56,4.56,0,0,0,0,.64,4.09,4.09,0,0,0,.09.58,4.52,4.52,0,0,0,1.46,2.41,3.9,3.9,0,0,0,1.41.81,4.84,4.84,0,0,0,1.17.27,4.35,4.35,0,0,0,.51,0h2.27a1.81,1.81,0,0,0,.52-.07,4.58,4.58,0,0,0,1.39-.48,4.45,4.45,0,0,0,2.11-2.25A3.72,3.72,0,0,0,21,11.7a1.77,1.77,0,0,0,.05-.69ZM14.32,15.5a4.11,4.11,0,1,1,4.11-4.11A4.12,4.12,0,0,1,14.32,15.5Z"/><path class="cls-2" d="M15.28,9s0,0,0,.1v4.69s0,0,0,0a2.52,2.52,0,0,0,1.63-2.46A2.64,2.64,0,0,0,15.28,9ZM13.36,9h0a2.54,2.54,0,0,0-1.65,2.47,2.58,2.58,0,0,0,1.63,2.34s0,0,0,0C13.36,12.15,13.39,10.58,13.36,9Z"/><path class="cls-3" d="M8.54,22.21s0,0-.06,0l-1-1.05,0,0s0,0,0,0V22c0,.07,0,.09.11.11h.09v.07H7.14v-.06H7.2A.13.13,0,0,0,7.33,22a.44.44,0,0,0,0-.15v-.81a.16.16,0,0,0-.13-.18.12.12,0,0,1-.08,0s0,0,0-.06h.37a.19.19,0,0,1,.1,0l.8.9s0,0,0,0,0,0,0-.06V21a.16.16,0,0,0,0-.09.18.18,0,0,0-.13-.11H8.22s0,0,0-.07h.54v.07s0,0,0,0a.12.12,0,0,0-.13.09.5.5,0,0,0,0,.17V22a.65.65,0,0,0,0,.2s0,0,0,0Zm10.25,0a.22.22,0,0,0-.11,0,.73.73,0,0,1-.58-.5.74.74,0,0,1,.54-1,.81.81,0,0,1,.69.13.62.62,0,0,1,.26.6.6.6,0,0,1-.05.24.74.74,0,0,1-.56.46.15.15,0,0,0-.1,0,.13.13,0,0,1-.09,0Zm.52-.74a.75.75,0,0,0,0-.2.67.67,0,0,0-.18-.33.43.43,0,0,0-.66.11.45.45,0,0,0,0,.11.86.86,0,0,0,0,.39.75.75,0,0,0,.13.35.42.42,0,0,0,.45.16.39.39,0,0,0,.29-.28,1.17,1.17,0,0,0,0-.31Zm1.72.74L21,22.15c-.32-.35-.63-.7-.95-1,0,0,0,0,0,0s0,0,0,0V22a.13.13,0,0,0,.13.11h.08s0,.05,0,.07h-.54s0,0,0-.07,0,0,.05,0a.13.13,0,0,0,.13-.1.3.3,0,0,0,0-.14V21c0-.11,0-.16-.16-.18h0v-.07s0,0,.05,0H20a.14.14,0,0,1,.09,0c.27.3.53.59.81.88l.05.06s0,0,0,0V21a.14.14,0,0,0-.15-.13h-.07v-.06h.54v.08h-.06c-.05,0-.09,0-.13.09a.41.41,0,0,0,0,.15v.95a.58.58,0,0,0,0,.18l-.07,0Zm-6.64,0-.05-.06-.94-1a.05.05,0,0,1,0-.05s0,0,0,0v.77a.23.23,0,0,0,0,.11c0,.07.05.09.11.11h.09s0,0,0,.07H13s0,0,0-.07,0,0,.06,0A.15.15,0,0,0,13.2,22a.44.44,0,0,0,0-.15v-.81c0-.13-.06-.18-.19-.2h0s0,0,0-.06h.37a.1.1,0,0,1,.08,0l.8.9,0,0s0,0,0,0V21a.14.14,0,0,0-.15-.15h-.06s0,0,0-.07h.54v.07s0,0-.05,0a.15.15,0,0,0-.13.09.34.34,0,0,0,0,.15v1a.41.41,0,0,0,0,.15l-.08,0ZM6.45,20.76H7.1v0s0,0-.07,0a.1.1,0,0,0-.11.11v1A.1.1,0,0,0,7,22.1H7.1v0l0,0h-.6V22.1h.06c.11,0,.13,0,.13-.13v-1a.09.09,0,0,0-.1-.09H6.47A.16.16,0,0,1,6.45,20.76ZM24.1,21s0,0,0,.05a.24.24,0,0,1-.24.09.18.18,0,0,1-.15-.18.21.21,0,0,1,.13-.2.22.22,0,0,1,.24,0,.15.15,0,0,1,0,.08V21Zm-.2.09a.17.17,0,0,0,.16-.17.16.16,0,0,0-.16-.16.16.16,0,0,0-.17.16A.17.17,0,0,0,23.9,21.09ZM6.47,20v-.09l.11,0c.15,0,.22-.07.22-.24V17.8a.66.66,0,0,0,0-.14.22.22,0,0,0-.21-.19H6.45v-.09s0,0,.08,0c.2,0,.42,0,.63,0s.39,0,.6,0a1.43,1.43,0,0,1,1,.46,1.16,1.16,0,0,1,.32.94,1.18,1.18,0,0,1-.86,1.06,1.84,1.84,0,0,1-.61.09c-.26,0-.52,0-.78,0H6.54s0,0-.07,0Zm.71-2.42s0,0,0,.07v2c0,.17.09.24.24.28a.86.86,0,0,0,.32,0,.87.87,0,0,0,.76-.55,1.44,1.44,0,0,0,0-1.08,1.05,1.05,0,0,0-.71-.65,1.39,1.39,0,0,0-.54,0Zm14.89-.11v-.06s0,0,0,0a2.06,2.06,0,0,0,.37-.16h0s.05,0,.05,0v1.34a.07.07,0,0,0,0,0,1.5,1.5,0,0,1,.23-.15.63.63,0,0,1,.8.18.83.83,0,0,1,.16.5,1,1,0,0,1-.35.79.85.85,0,0,1-.65.18,1.15,1.15,0,0,1-.36-.11s-.05,0-.07,0l-.07.06s-.06,0-.08,0,0-.11,0-.17,0-.4,0-.6v-1.6a.17.17,0,0,0-.13-.14l-.06,0Zm1.45,1.8a.82.82,0,0,0-.18-.54,1,1,0,0,0-.24-.18.41.41,0,0,0-.36,0,.38.38,0,0,0-.13.09.1.1,0,0,0,0,.07v.83a.4.4,0,0,0,.49.39.62.62,0,0,0,.35-.24.93.93,0,0,0,.11-.44Zm-4.3.05a.1.1,0,0,1,.07,0c0,.13,0,.24-.05.37s0,.09,0,.12,0,.06-.06.08a1.18,1.18,0,0,1-.3.09,1.78,1.78,0,0,1-.57.07,1.52,1.52,0,0,1-.84-.27A1.16,1.16,0,0,1,17,19a1.56,1.56,0,0,1,0-.68,1.31,1.31,0,0,1,.62-.77,1.55,1.55,0,0,1,.84-.21,2.33,2.33,0,0,1,.5.1c.09,0,.19,0,.28.09s0,.35,0,.51h-.1s0,0,0-.07a.63.63,0,0,0-.5-.5,1.18,1.18,0,0,0-.74.08.91.91,0,0,0-.49.53,1.42,1.42,0,0,0,.11,1.25,1.12,1.12,0,0,0,.64.51.83.83,0,0,0,.54,0,.75.75,0,0,0,.46-.53s0,0,.06,0Zm-8.33.61V20c-.26,0-.53,0-.79,0a.27.27,0,0,1,0-.09s.06,0,.08,0h0c.11,0,.13,0,.13-.13v-1a.2.2,0,0,0-.12-.19.24.24,0,0,0-.09,0v-.08a4.24,4.24,0,0,0,.5-.18c0,.09,0,.18,0,.28a.07.07,0,0,0,0,0,1.2,1.2,0,0,1,.21-.13,1.07,1.07,0,0,1,.33-.11.75.75,0,0,1,.21,0,.38.38,0,0,1,.22.2.58.58,0,0,1,.06.26v1c0,.09,0,.13.13.13H12V20c-.26,0-.53,0-.79,0a.27.27,0,0,1,0-.09s.06,0,.1,0,.15,0,.15-.15v-.88a.22.22,0,0,0,0-.11.28.28,0,0,0-.26-.22.75.75,0,0,0-.21,0,.91.91,0,0,0-.26.13.07.07,0,0,0,0,0V19.8c0,.06,0,.08.08.1h.11S10.85,19.86,10.89,19.88Zm11.18,0v.07c-.19,0-.35.08-.54.11a.33.33,0,0,1,0-.14v-.15s0,0-.06,0l-.22.16a.68.68,0,0,1-.39.11.37.37,0,0,1-.37-.31c0-.06,0-.09,0-.15v-.95a.15.15,0,0,0-.11-.15.25.25,0,0,0-.12,0v-.05h.1l.35,0c.06,0,.06,0,.06.06v1a.65.65,0,0,0,0,.2.31.31,0,0,0,.39.24,1.06,1.06,0,0,0,.28-.15c.07-.05.07-.05.07-.15V18.7a.16.16,0,0,0-.07-.13l-.17-.05-.06,0s0,0,0-.05a.23.23,0,0,1,.11,0l.43,0c.06,0,.06,0,.06.06v1.26c0,.11,0,.11.11.11s.11,0,.15,0ZM12.25,19a.86.86,0,0,0,.18.66.51.51,0,0,0,.6.11.92.92,0,0,0,.21-.13l0-.05.06.05a.9.9,0,0,1-.6.41.65.65,0,0,1-.69-.34,1,1,0,0,1-.11-.62,1.11,1.11,0,0,1,.13-.4.71.71,0,0,1,.58-.37.64.64,0,0,1,.63.35.53.53,0,0,1,0,.26s0,.05-.06.05h-1s0,0-.05,0Zm0-.13s0,0,0,0h.64a.07.07,0,0,0,.07-.07s0-.08,0-.09a.26.26,0,0,0-.22-.24.34.34,0,0,0-.37.11A.49.49,0,0,0,12.25,18.83Zm-.67,2s0,0,0,0a0,0,0,0,1,0,0h.67a.5.5,0,0,1,.18,0,.34.34,0,0,1,.17.56.57.57,0,0,1-.13.1h0s0,0,0,.06.19.27.28.42.11.15.22.15,0,.05,0,.07a.06.06,0,0,1-.05,0h-.3s-.06,0-.08,0a3.7,3.7,0,0,1-.35-.55c0-.07,0-.07-.11-.07h0s0,0,0,0V22c0,.05,0,.09.09.09h.1s0,.06,0,.07a.07.07,0,0,1-.06,0h-.58s0,0,0,0,0,0,.06,0,.11,0,.11-.13V20.9s0-.07-.09-.07Zm.44.61a.68.68,0,0,0,.21,0,.21.21,0,0,0,.17-.17.44.44,0,0,0,0-.16.29.29,0,0,0-.4-.24v.59ZM19.42,20v-.09h.17c.06,0,.08,0,.08-.1V17.6a.14.14,0,0,0-.13-.16l-.06,0v-.06s.06,0,.07,0a3.49,3.49,0,0,0,.34-.15s0,0,0,0,0,0,0,0v2.59c0,.07,0,.09.1.11h.15s0,.05,0,.09Zm-4.64-.5.06,0s0,0,0,0a.73.73,0,0,0,.09.22.43.43,0,0,0,.45.17.28.28,0,0,0,.17-.43.94.94,0,0,0-.12-.09l-.18-.09a1.26,1.26,0,0,1-.26-.13.51.51,0,0,1-.19-.22.46.46,0,0,1,.3-.6.7.7,0,0,1,.45,0,.79.79,0,0,1,.22.09,2.3,2.3,0,0,1,0,.37h-.08a.61.61,0,0,1,0-.11.41.41,0,0,0-.51-.24.23.23,0,0,0-.11.38.69.69,0,0,0,.13.11,1,1,0,0,0,.21.1.93.93,0,0,1,.2.09l.08.05a.46.46,0,0,1,0,.72.75.75,0,0,1-.31.15.89.89,0,0,1-.58-.1s0,0,0-.05a2.42,2.42,0,0,1,0-.39Zm-1.28-.91V18.5l.31-.15.12-.05c.05,0,.05,0,.05,0v.31s0,0,0,0a1.74,1.74,0,0,1,.18-.22.55.55,0,0,1,.23-.11.41.41,0,0,1,.15,0,.17.17,0,0,1,.07.27.17.17,0,0,1-.22.06l-.06,0a.25.25,0,0,0-.17,0,.3.3,0,0,0-.2.3v.86c0,.09,0,.13.13.13h.26s0,.05,0,.09c-.32,0-.63,0-1,0,0,0,0-.05,0-.09s.06,0,.07,0h.12c.07,0,.09,0,.09-.11v-1c0-.09,0-.15-.11-.16a.2.2,0,0,1-.11,0Zm-2.15,2.53,0,0a.12.12,0,0,1,0-.08.18.18,0,0,0-.15-.16,1.93,1.93,0,0,0-.34,0,4,4,0,0,0,0,.49s0,0,0,0H11c.07,0,.11,0,.13-.11a.06.06,0,0,1,0-.05s0,0,.07,0v.47a.08.08,0,0,1-.07,0,.1.1,0,0,1,0-.07c0-.07,0-.11-.13-.11h-.25a.06.06,0,0,0,0,0V22c0,.07,0,.11.11.13a.92.92,0,0,0,.33,0,.23.23,0,0,0,.19-.15l0-.09a.2.2,0,0,0,.07,0c0,.11-.06.22-.07.33h-1.1s0,0,0-.08h.07a.08.08,0,0,0,.09-.09V21c0-.11,0-.14-.13-.14h0s0,0,0-.06,1,0,1,0S11.35,21,11.35,21.09Zm4.72,1v.07h-.6s0,0,0-.07h.08s.07,0,0-.09a2.39,2.39,0,0,0-.11-.32,1.68,1.68,0,0,0-.45,0,0,0,0,0,1,0,0c0,.09,0,.2-.09.3s0,.07.06.09a.13.13,0,0,1,.09,0v.07h-.32s-.11,0-.15,0v-.06h0A.23.23,0,0,0,14.8,22c0-.1.06-.17.09-.26.1-.28.21-.55.3-.85a.15.15,0,0,1,.11-.11.1.1,0,0,0,.08,0s0,0,.07,0,.1.24.13.37c.1.28.19.53.28.81l0,.09a.1.1,0,0,0,.11.07l.06,0Zm-1-.55h.35c0-.19-.11-.35-.16-.52h0c-.06.17-.11.33-.17.52Zm7.6.55v.07h-.59a0,0,0,0,1,0-.07h.07c.06,0,.08,0,.06-.09l-.11-.34h-.45s0,.08,0,.11a1,1,0,0,1-.07.21c0,.05,0,.07.05.09s.08,0,.11,0v.07h-.46V22.1h0a.17.17,0,0,0,.17-.13c.05-.17.13-.35.18-.52s.15-.4.21-.6a0,0,0,0,1,0,0,.41.41,0,0,0,.15-.07s.06,0,.08,0a1.65,1.65,0,0,0,.07.2c.11.33.23.64.36,1a.24.24,0,0,0,0,.09.12.12,0,0,0,.12.09s0,0,0,0Zm-.61-.55c-.06-.19-.11-.35-.17-.52h0c0,.17-.11.35-.17.52ZM10.2,20.7a.06.06,0,0,1,.05,0,1.22,1.22,0,0,0,0,.33s0,0-.07,0a.07.07,0,0,1,0-.06c0-.09-.05-.13-.15-.13H9.68s0,0,0,0v1c0,.09,0,.13.14.13h.06v0s0,0,0,0H9.19s0,0,0-.07h.09c.08,0,.1,0,.12-.09V20.89s0,0,0,0H9c-.07,0-.09,0-.11.09s0,.05,0,.07H8.82a2.09,2.09,0,0,0,0-.35s0,0,.05,0a.08.08,0,0,0,.09.06h1.1c.08,0,.1,0,.1-.06Zm5.78.35H15.9a2.09,2.09,0,0,0,0-.35s0,0,.05,0,.06.06.1.06h1.08s.07,0,.07-.06h.06a1.83,1.83,0,0,0,0,.33s-.06,0-.07,0a.16.16,0,0,1,0-.09c0-.08-.06-.11-.13-.11h-.34s0,0,0,.05V22c0,.05,0,.09.11.09h.08s0,.05,0,.07h-.69v-.07s.05,0,.09,0,.09,0,.11-.09V20.9h0l0,0H16c-.05,0-.07,0-.09.07s0,.07,0,.11ZM9.23,18.5v-.05a.08.08,0,0,1,.07,0l.34-.11,0,0s0,0,0,0v1.46a.09.09,0,0,0,.1.1H10s0,0,0,0v0h-.8v-.07s0,0,.06,0h.09c.06,0,.09,0,.09-.11v-1a.22.22,0,0,0-.14-.24Zm14.61,3.67H22.76V22.1s0,0,.07,0,.1,0,.12-.11V21c0-.11,0-.13-.13-.13h0s0,0,0-.07h.63a0,0,0,0,1,0,.07h-.09c-.06,0-.08,0-.08.07v1c0,.11,0,.13.13.15h.21a.26.26,0,0,0,.26-.2s0,0,0-.06,0,0,0,0h0a3.75,3.75,0,0,1-.09.37Zm-6.45-1.34v-.07H18v0s-.06,0-.08,0a.08.08,0,0,0-.09.09V22c0,.05,0,.07.09.09H18s0,0,0,.07h-.64v0s.06,0,.08,0a.09.09,0,0,0,.09-.09V21c0-.07,0-.09-.09-.11a.12.12,0,0,0-.08,0ZM9.75,17.55a.19.19,0,1,1-.19-.19A.18.18,0,0,1,9.75,17.55Z"/></svg>