<svg id="图层_1" data-name="图层 1" xmlns="http://www.w3.org/2000/svg" viewBox="0 0 30 30"><defs><style>.cls-1{fill:#fff;}.cls-2{fill:#1c64a9;}</style></defs><title>画板 1 副本 4</title><circle class="cls-1" cx="15" cy="15" r="15"/><path class="cls-1" d="M2.93,7.86H26.71V22.61H2.93Z"/><path class="cls-2" d="M5.89,13l-.37-.94L5.15,13Zm9.46-.86a.59.59,0,0,0-.28,0h-.7v.53h.7a.59.59,0,0,0,.28,0,.23.23,0,0,0,.13-.24A1,1,0,0,0,15.35,12.16Zm5-.08L20,13h.73Zm6.19,5.37V15.56h-14l-.5.54-.49-.54H8.06v4.06h3.4l.53-.53.49.53h2.18v-.9h.12a2,2,0,0,0,.74-.12v1h9.55a1.44,1.44,0,0,0,1.6-1.51A1.56,1.56,0,0,0,26.54,17.45Zm-11.76.61H14V19H12.77L12,18.11l-.77.9H8.71V16.18H11.3L12,17l.78-.86h2c.7,0,1.11.33,1.11.94S15.52,18.06,14.78,18.06Zm3.81-.16a1,1,0,0,1,.12.53V19H18v-.45a1,1,0,0,0-.08-.5.62.62,0,0,0-.45-.12h-.62v1h-.7V16.14h1.52a1.61,1.61,0,0,1,.78.12.73.73,0,0,1,.37.62.79.79,0,0,1-.41.73c0,.13.12.21.16.29Zm2.54-1.07H19.66v.46h1.43v.61H19.66v.49h1.47V19H19V16.18h2.17v.65ZM22.73,19H21.46v-.66h1.27c.12,0,.21,0,.25,0a.21.21,0,0,0,.08-.16A.21.21,0,0,0,23,18s-.13,0-.21,0h-.12c-.53,0-1.23,0-1.23-.9a.82.82,0,0,1,.94-.86h1.23v.65H22.4a.36.36,0,0,0-.24.05.21.21,0,0,0-.08.16c0,.08,0,.16.12.16s.12,0,.24,0h.37a1,1,0,0,1,.74.25.74.74,0,0,1,.21.62A.9.9,0,0,1,22.73,19Zm2.34,0H23.8v-.66h1.27c.12,0,.2,0,.24,0a.22.22,0,0,0,.09-.16.22.22,0,0,0-.09-.17.3.3,0,0,0-.2,0H25c-.54,0-1.23,0-1.23-.9a.82.82,0,0,1,.94-.86H26v.65H24.78a.4.4,0,0,0-.25.05.21.21,0,0,0-.08.16c0,.08,0,.16.13.16s.12,0,.24,0h.37a1,1,0,0,1,.74.25.77.77,0,0,1,.2.62.93.93,0,0,1-1.06.9Z"/><path class="cls-2" d="M9.41,16.83v.41H10.8v.66H9.41v.45h1.48l.69-.78-.65-.74Zm4.63.62h.74c.25,0,.37-.12.37-.33s-.12-.33-.37-.33H14Zm-.69,1.15v-2l-.87,1Zm4.46-3.86a2.21,2.21,0,0,0,.9.21H19.9l.25-.62h.45l.25.62h4.42v-4.1H18.76a2.21,2.21,0,0,0-1,.21v-.21H9.21l-.37.86-.37-.86H4.62L3,14.91H5.07l.24-.62h.45l.25.62H17.85Zm-7.09-.41H10v-2l-.82,2H8.63l-.82-2v2H6.42l-.25-.61H4.9l-.28.61H3.88L5,11.51H6L7,14V11.51H8.06l.78,1.8.73-1.8h1.11v2.82Zm2.54-2.21H11.79v.45h1.43v.62H11.79v.49h1.47v.61H11.09V11.51h2.17Zm2.83,1.11a1,1,0,0,1,.12.53v.57h-.69v-.45a1,1,0,0,0-.08-.49.7.7,0,0,0-.46-.12h-.61v1h-.74V11.51h1.48a1.61,1.61,0,0,1,.78.12.68.68,0,0,1,.32.61.82.82,0,0,1-.41.74A.83.83,0,0,1,16.09,13.23Zm1.15,1.1H16.5V11.51h.7Zm.25-1.43a1.54,1.54,0,0,1,.36-1.11,1.2,1.2,0,0,1,.95-.32h.61v.65H18.8c-.25,0-.37,0-.45.17a.75.75,0,0,0-.17.57.86.86,0,0,0,.17.61c.08.13.28.13.41.13H19l.9-2.18h1l1,2.46V11.42h1v.05l1,1.76V11.51h.7v2.82h-.95v0l-1.1-1.92v2H21.21v0L21,13.72H19.74l-.25.61h-.73a1.42,1.42,0,0,1-1-.32A1.38,1.38,0,0,1,17.49,12.9Zm0,3.93h-.7v.54h.7a.59.59,0,0,0,.28,0,.26.26,0,0,0,.13-.25.19.19,0,0,0-.13-.2C17.77,16.83,17.65,16.83,17.53,16.83Z"/></svg>