<?xml version="1.0" encoding="utf-8"?>
<!-- Generator: Adobe Illustrator 24.0.1, SVG Export Plug-In . SVG Version: 6.00 Build 0)  -->
<svg version="1.1" id="图层_1" xmlns="http://www.w3.org/2000/svg" xmlns:xlink="http://www.w3.org/1999/xlink" x="0px" y="0px"
	 viewBox="0 0 51.6 51.6" style="enable-background:new 0 0 51.6 51.6;" xml:space="preserve">
<style type="text/css">
	.st0{fill:none;stroke:#152B50;stroke-width:2;stroke-miterlimit:10;}
</style>
<path class="st0" d="M36.2,45.5H5.2c-1.4,0-2.5-1.1-2.5-2.5V20.6c0-1.4,1.1-2.5,2.5-2.5h31.1c1.4,0,2.5,1.1,2.5,2.5V43
	C38.7,44.4,37.6,45.5,36.2,45.5z"/>
<path class="st0" d="M13.8,13.3V6.5c0-1.4,1.1-2.5,2.5-2.5h31.1c1.4,0,2.5,1.1,2.5,2.5v22.4c0,1.4-1.1,2.5-2.5,2.5h-3.5"/>
<line class="st0" x1="10.6" y1="36.6" x2="21.7" y2="36.6"/>
<line class="st0" x1="26.8" y1="36.6" x2="30.8" y2="36.6"/>
<line class="st0" x1="3.4" y1="29.6" x2="38.2" y2="29.6"/>
</svg>
