<?xml version="1.0" encoding="utf-8"?>
<!-- Generator: Adobe Illustrator 24.0.1, SVG Export Plug-In . SVG Version: 6.00 Build 0)  -->
<svg version="1.1" id="图层_1" xmlns="http://www.w3.org/2000/svg" xmlns:xlink="http://www.w3.org/1999/xlink" x="0px" y="0px"
	 viewBox="0 0 43 43" style="enable-background:new 0 0 43 43;" xml:space="preserve">
<style type="text/css">
	.st0{fill:none;stroke:#152B50;stroke-width:2;stroke-linecap:square;}
	.st1{fill:none;stroke:#152B50;stroke-width:2;stroke-linecap:round;}
	.st2{opacity:0.64;fill:none;stroke:#152B50;stroke-width:2;stroke-linecap:square;enable-background:new    ;}
</style>
<line class="st0" x1="6.7" y1="22.4" x2="13.6" y2="22.4"/>
<line class="st0" x1="1.5" y1="31.4" x2="35.5" y2="31.4"/>
<path class="st0" d="M19,12.9"/>
<path class="st0" d="M17.8,12.9"/>
<path class="st1" d="M35.7,25v0.6v9.7c0,1.2-1.1,2.3-2.3,2.3h-30c-1.3,0-2.3-0.9-2.3-2.3V15.1c0-1.2,1.1-2.3,2.3-2.3h12.9"/>
<path class="st2" d="M35.7,23.8"/>
<circle class="st0" cx="32" cy="15.3" r="9.8"/>
<line class="st0" x1="29.7" y1="18.7" x2="34.9" y2="18.7"/>
<line class="st0" x1="29.1" y1="15.5" x2="35" y2="15.5"/>
<line class="st0" x1="32.2" y1="20.4" x2="32.2" y2="15.6"/>
<line class="st0" x1="29.6" y1="11.3" x2="32.3" y2="15.4"/>
<line class="st0" x1="34.7" y1="11.3" x2="31.8" y2="15.4"/>
</svg>
