<?xml version="1.0" encoding="utf-8"?>
<!-- Generator: Adobe Illustrator 24.0.1, SVG Export Plug-In . SVG Version: 6.00 Build 0)  -->
<svg version="1.1" id="图层_1" xmlns="http://www.w3.org/2000/svg" xmlns:xlink="http://www.w3.org/1999/xlink" x="0px" y="0px"
	 viewBox="0 0 43 43" style="enable-background:new 0 0 43 43;" xml:space="preserve">
<style type="text/css">
	.st0{fill:none;stroke:#152B50;stroke-width:2;stroke-linecap:square;}
	.st1{fill:none;stroke:#152B50;stroke-width:2;}
</style>
<g id="money-time" transform="translate(17.000000, 17.000000)">
	<polyline id="Path" class="st0" points="1.8,-6.2 1.8,1.8 -6.3,1.8 	"/>
	<path id="Path_1_" class="st1" d="M8.5,9.9v5.4c0,2.3,3.6,4,8.1,4s8.1-1.7,8.1-4V9.9"/>
	<path id="Path_2_" class="st1" d="M8.5,15.3v5.4c0,2.3,3.6,4,8.1,4s8.1-1.7,8.1-4v-5.4"/>
	<ellipse id="Oval" class="st0" cx="16.6" cy="9.9" rx="8.1" ry="4"/>
	<path id="Path_3_" class="st0" d="M3.1,19.3c-0.4,0-0.9,0-1.3,0c-9.7,0-17.5-7.8-17.5-17.5s7.8-17.5,17.5-17.5
		c9.1,0,16.8,7.1,17.5,16.1"/>
</g>
</svg>
