<?xml version="1.0" encoding="utf-8"?>
<!-- Generator: Adobe Illustrator 24.0.1, SVG Export Plug-In . SVG Version: 6.00 Build 0)  -->
<svg version="1.1" id="图层_1" xmlns="http://www.w3.org/2000/svg" xmlns:xlink="http://www.w3.org/1999/xlink" x="0px" y="0px"
	 viewBox="0 0 51.6 51.6" style="enable-background:new 0 0 51.6 51.6;" xml:space="preserve">
<style type="text/css">
	.st0{fill:#152B50;}
</style>
<path class="st0" d="M39.7,18H15.1v-4.8c0-5.9,4.6-10.5,10.6-10.5c4.4,0,8.3,2.7,9.9,6.8c0.2,0.6,0.9,0.9,1.5,0.7
	c0.6-0.2,0.9-0.9,0.7-1.5c-1.9-5-6.6-8.3-12-8.3c-3.5,0-6.8,1.3-9.2,3.8c-2.4,2.4-3.7,5.6-3.7,9V18h-1.1c-3.5,0-6.3,2.8-6.3,6.3
	v20.9c0,3.5,2.8,6.3,6.3,6.3h28c3.5,0,6.3-2.8,6.3-6.3V24.2C46,20.8,43.2,18,39.7,18z M43.7,45.1c0,2.2-1.8,4-4,4l-28,0
	c-2.2,0-4-1.8-4-4V24.2c0-2.2,1.8-4,4-4h28c2.2,0,4,1.8,4,4V45.1z"/>
<path class="st0" d="M25.6,29.9c-0.6,0-1.1,0.5-1.1,1.1v6.3c0,0.6,0.5,1.1,1.1,1.1c0.6,0,1.1-0.5,1.1-1.1v-6.3
	C26.7,30.4,26.2,29.9,25.6,29.9z"/>
</svg>
